<?xml version="1.0" encoding="UTF-8" standalone="no"?>
<svg
   xmlns:dc="http://purl.org/dc/elements/1.1/"
   xmlns:cc="http://creativecommons.org/ns#"
   xmlns:rdf="http://www.w3.org/1999/02/22-rdf-syntax-ns#"
   xmlns:svg="http://www.w3.org/2000/svg"
   xmlns="http://www.w3.org/2000/svg"
   xmlns:xlink="http://www.w3.org/1999/xlink"
   xmlns:sodipodi="http://sodipodi.sourceforge.net/DTD/sodipodi-0.dtd"
   xmlns:inkscape="http://www.inkscape.org/namespaces/inkscape"
   width="2752"
   height="176"
   viewBox="0 0 2752 176"
   version="1.1"
   id="svg2"
   inkscape:version="0.48.2 r9819"
   sodipodi:docname="postmodern.svg.unbranded">
  <metadata
     id="metadata1031">
    <rdf:RDF>
      <cc:Work
         rdf:about="">
        <dc:format>image/svg+xml</dc:format>
        <dc:type
           rdf:resource="http://purl.org/dc/dcmitype/StillImage" />
        <dc:title></dc:title>
      </cc:Work>
    </rdf:RDF>
  </metadata>
  <sodipodi:namedview
     pagecolor="#ffffff"
     bordercolor="#666666"
     borderopacity="1"
     objecttolerance="10"
     gridtolerance="10"
     guidetolerance="10"
     inkscape:pageopacity="0"
     inkscape:pageshadow="2"
     inkscape:window-width="1914"
     inkscape:window-height="1135"
     id="namedview1029"
     showgrid="false"
     inkscape:zoom="0.69912791"
     inkscape:cx="1274.9963"
     inkscape:cy="-151.73228"
     inkscape:window-x="0"
     inkscape:window-y="0"
     inkscape:window-maximized="1"
     inkscape:current-layer="svg2" />
  <defs
     id="defs4">
    <g
       id="bt1">
      <path
         d="M9,0C8.47,0,7.96,0.21,7.59,0.59l-7,7C0.21,7.96,0,8.47,0,9v77c0,1.1,0.9,2,2,2h53c0.53,0,1.04-0.21,1.41-0.59l7-7C63.79,80.04,64,79.53,64,79V2c0-1.1-0.9-2-2-2H9z"
         id="path7" />
      <path
         fill="#9F9F9F"
         d="M11.75,78.25l-9,9h9H55c0.33,0,0.65-0.13,0.88-0.37l7-7c0.23-0.23,0.37-1.3,0.37-1.63H11.75z"
         id="path9" />
      <path
         fill="#D7D7D7"
         d="M8.12,1.12l-7,7C0.88,8.35,0.75,8.67,0.75,9v66.25v1v9l2,2l7-7v-4v-1V0.75C9.42,0.75,8.35,0.88,8.12,1.12z"
         id="path11" />
      <path
         fill="#BFBFBF"
         d="M1.61,86.89l10.14-10.14v-0.5L1.34,86.66C1.42,86.75,1.51,86.82,1.61,86.89z"
         id="path13" />
      <path
         fill="#B7B7B7"
         d="M1.93,87.07l9.82-9.82v-0.5L1.61,86.89C1.71,86.96,1.82,87.02,1.93,87.07z"
         id="path15" />
      <path
         fill="#AFAFAF"
         d="M2.3,87.2l9.45-9.45v-0.5l-9.82,9.82C2.05,87.12,2.17,87.17,2.3,87.2z"
         id="path17" />
      <path
         fill="#A7A7A7"
         d="M11.75,77.75L2.3,87.2c0.14,0.03,0.29,0.05,0.45,0.05l9-9V77.75z"
         id="path19" />
      <path
         fill="#C7C7C7"
         d="M1.34,86.66l10.41-10.41h-0.5L1.11,86.39C1.18,86.49,1.25,86.58,1.34,86.66z"
         id="path21" />
      <path
         fill="#CDCDCD"
         d="M1.11,86.39l10.14-10.14h-0.5l-9.82,9.82C0.98,86.18,1.04,86.29,1.11,86.39z"
         id="path23" />
      <path
         fill="#D2D2D2"
         d="M0.93,86.07l9.82-9.82h-0.5L0.8,85.7C0.83,85.83,0.88,85.95,0.93,86.07z"
         id="path25" />
      <path
         fill="#D7D7D7"
         d="M10.25,76.25h-0.5l-9,9c0,0.15,0.02,0.3,0.05,0.45L10.25,76.25z"
         id="path27" />
      <path
         fill="#F6F6F6"
         d="M63.25,78.25V2.75c0-1.1-0.9-2-2-2h-50.5c-1.1,0-2,0.9-2,2v75.5c0,1.1,0.9,2,2,2h50.5C62.35,80.25,63.25,79.35,63.25,78.25z"
         id="path29" />
      <path
         fill="#FFFFFF"
         d="M8.75,78.25V2.75c0-1.1,0.9-2,2-2h-1c-1.1,0-2,0.9-2,2v75.5c0,1.1,0.9,2,2,2h1C9.65,80.25,8.75,79.35,8.75,78.25z"
         id="path31" />
    </g>
    <g
       id="bt2">
      <path
         fill="#0000FF"
         d="M9,0C8.47,0,7.96,0.21,7.59,0.59l-7,7C0.21,7.96,0,8.47,0,9v77c0,1.1,0.9,2,2,2h53c0.53,0,1.04-0.21,1.41-0.59l7-7C63.79,80.04,64,79.53,64,79V2c0-1.1-0.9-2-2-2H9z"
         id="path34" />
      <path
         fill="#8F8FFF"
         d="M11.75,78.25l-9,9h9H55c0.33,0,0.65-0.13,0.88-0.37l7-7c0.23-0.23,0.37-1.3,0.37-1.63H11.75z"
         id="path36" />
      <path
         fill="#C7C7FF"
         d="M8.12,1.12l-7,7C0.88,8.35,0.75,8.67,0.75,9v66.25v1v9l2,2l7-7v-4v-1V0.75C9.42,0.75,8.35,0.88,8.12,1.12z"
         id="path38" />
      <path
         fill="#AFAFFF"
         d="M1.61,86.89l10.14-10.14v-0.5L1.34,86.66C1.42,86.75,1.51,86.82,1.61,86.89z"
         id="path40" />
      <path
         fill="#A7A7FF"
         d="M1.93,87.07l9.82-9.82v-0.5L1.61,86.89C1.71,86.96,1.82,87.02,1.93,87.07z"
         id="path42" />
      <path
         fill="#9F9FFF"
         d="M2.3,87.2l9.45-9.45v-0.5l-9.82,9.82C2.05,87.12,2.17,87.17,2.3,87.2z"
         id="path44" />
      <path
         fill="#9797FF"
         d="M11.75,77.75L2.3,87.2c0.14,0.03,0.29,0.05,0.45,0.05l9-9V77.75z"
         id="path46" />
      <path
         fill="#B7B7FF"
         d="M1.34,86.66l10.41-10.41h-0.5L1.11,86.39C1.18,86.49,1.25,86.58,1.34,86.66z"
         id="path48" />
      <path
         fill="#BDBDFF"
         d="M1.11,86.39l10.14-10.14h-0.5l-9.82,9.82C0.98,86.18,1.04,86.29,1.11,86.39z"
         id="path50" />
      <path
         fill="#C2C2FF"
         d="M0.93,86.07l9.82-9.82h-0.5L0.8,85.7C0.83,85.83,0.88,85.95,0.93,86.07z"
         id="path52" />
      <path
         fill="#C7C7FF"
         d="M10.25,76.25h-0.5l-9,9c0,0.15,0.02,0.3,0.05,0.45L10.25,76.25z"
         id="path54" />
      <path
         fill="#E3E3FF"
         d="M61.25,0.75H9.75c-1.1,0-2,0.9-2,2v75.5c0,1.1,0.9,2,2,2h51.5c1.1,0,2-0.9,2-2V2.75C63.25,1.65,62.35,0.75,61.25,0.75z"
         id="path56" />
      <path
         fill="#FFFFFF"
         stroke="#0000FF"
         stroke-width="3"
         d="M60,74.19c0,1.55-1.22,2.81-2.72,2.81H13.72c-1.5,0-2.72-1.26-2.72-2.81V6.81C11,5.26,12.22,4,13.72,4h43.56C58.78,4,60,5.26,60,6.81V74.19z"
         id="path58" />
    </g>
    <path
       id="bams"
       fill="#006C00"
       d="M11,13.5c0-0.92-1.25-1.71-3.06-2.09V4.44C9.75,4.06,11,3.27,11,2.35C11,1.05,8.54,0,5.5,0S0,1.05,0,2.35c0,0.92,1.25,1.71,3.06,2.09v6.97C1.25,11.79,0,12.58,0,13.5c0,0.92,1.25,1.71,3.06,2.09v6.96C1.25,22.94,0,23.73,0,24.65C0,25.95,2.46,27,5.5,27s5.5-1.05,5.5-2.35c0-0.92-1.25-1.71-3.06-2.09v-6.96C9.75,15.21,11,14.42,11,13.5z M5.5,1.47c1.35,0,2.44,0.39,2.44,0.88c0,0.41-0.78,0.75-1.83,0.85v5.94c0,0.46-0.28,0.84-0.61,0.84S4.89,9.6,4.89,9.14V3.2C3.84,3.1,3.06,2.76,3.06,2.35C3.06,1.86,4.15,1.47,5.5,1.47z M5.5,25.53c-1.35,0-2.44-0.39-2.44-0.88c0-0.41,0.78-0.75,1.83-0.85v-5.94c0-0.46,0.28-0.84,0.61-0.84s0.61,0.38,0.61,0.84v5.94c1.05,0.1,1.83,0.44,1.83,0.85C7.94,25.14,6.85,25.53,5.5,25.53z M5.5,14.38c-1.86,0-3.36-0.39-3.36-0.88c0-0.49,1.5-0.88,3.36-0.88s3.36,0.39,3.36,0.88C8.86,13.99,7.36,14.38,5.5,14.38z" />
    <path
       id="bams2"
       fill="#9C0000"
       d="M11,13.5c0-0.92-1.25-1.71-3.06-2.09V4.44C9.75,4.06,11,3.27,11,2.35C11,1.05,8.54,0,5.5,0S0,1.05,0,2.35c0,0.92,1.25,1.71,3.06,2.09v6.97C1.25,11.79,0,12.58,0,13.5c0,0.92,1.25,1.71,3.06,2.09v6.96C1.25,22.94,0,23.73,0,24.65C0,25.95,2.46,27,5.5,27s5.5-1.05,5.5-2.35c0-0.92-1.25-1.71-3.06-2.09v-6.96C9.75,15.21,11,14.42,11,13.5z M5.5,1.47c1.35,0,2.44,0.39,2.44,0.88c0,0.41-0.78,0.75-1.83,0.85v5.94c0,0.46-0.28,0.84-0.61,0.84S4.89,9.6,4.89,9.14V3.2C3.84,3.1,3.06,2.76,3.06,2.35C3.06,1.86,4.15,1.47,5.5,1.47z M5.5,25.53c-1.35,0-2.44-0.39-2.44-0.88c0-0.41,0.78-0.75,1.83-0.85v-5.94c0-0.46,0.28-0.84,0.61-0.84s0.61,0.38,0.61,0.84v5.94c1.05,0.1,1.83,0.44,1.83,0.85C7.94,25.14,6.85,25.53,5.5,25.53z M5.5,14.38c-1.86,0-3.36-0.39-3.36-0.88c0-0.49,1.5-0.88,3.36-0.88s3.36,0.39,3.36,0.88C8.86,13.99,7.36,14.38,5.5,14.38z" />
    <g
       id="dots">
      <path
         fill="#10106C"
         d="M9,1.42c-4.18,0-7.58,3.4-7.58,7.58s3.4,7.58,7.58,7.58c4.18,0,7.58-3.4,7.58-7.58S13.18,1.42,9,1.42zM9,15.11c-1.36,0-2.49-0.97-2.75-2.25c0.78,0.56,1.72,0.89,2.75,0.89c1.03,0,1.97-0.34,2.75-0.89C11.49,14.14,10.36,15.11,9,15.11z M9,2.89c1.36,0,2.49,0.97,2.75,2.25C10.97,4.59,10.03,4.25,9,4.25c-1.03,0-1.97,0.34-2.75,0.89C6.51,3.86,7.64,2.89,9,2.89z M12.75,9c0,0.57-0.14,1.11-0.37,1.59C12.04,9.92,11.51,9.37,10.85,9c0.66-0.37,1.19-0.92,1.53-1.59C12.61,7.89,12.75,8.43,12.75,9z M5.25,9c0-0.57,0.14-1.11,0.37-1.59C5.96,8.08,6.49,8.63,7.15,9c-0.66,0.37-1.19,0.92-1.53,1.59C5.39,10.11,5.25,9.57,5.25,9z M11.59,11.7c-1.02-0.27-1.82-1.1-2.03-2.14c1.04,0.21,1.87,1.01,2.14,2.03C11.66,11.63,11.63,11.66,11.59,11.7z M6.3,11.59c0.27-1.02,1.1-1.82,2.15-2.03c-0.21,1.04-1.01,1.87-2.03,2.14C6.37,11.66,6.34,11.63,6.3,11.59z M6.41,6.3c1.02,0.27,1.82,1.1,2.03,2.15C7.4,8.23,6.57,7.43,6.3,6.41C6.34,6.37,6.37,6.34,6.41,6.3z M11.7,6.41c-0.27,1.02-1.1,1.82-2.14,2.03c0.21-1.05,1.01-1.87,2.03-2.15C11.63,6.34,11.66,6.37,11.7,6.41z M9,7.15C8.63,6.49,8.08,5.96,7.41,5.62C7.89,5.39,8.43,5.25,9,5.25s1.11,0.14,1.59,0.37C9.92,5.96,9.37,6.49,9,7.15z M9,10.85c0.37,0.66,0.92,1.19,1.59,1.53c-0.49,0.23-1.02,0.37-1.59,0.37s-1.11-0.14-1.59-0.37C8.08,12.04,8.63,11.51,9,10.85z M5.14,11.75C3.86,11.49,2.89,10.36,2.89,9s0.97-2.49,2.25-2.75C4.59,7.03,4.25,7.97,4.25,9C4.25,10.03,4.59,10.97,5.14,11.75z M12.86,6.25c1.28,0.26,2.25,1.39,2.25,2.75s-0.97,2.49-2.25,2.75c0.56-0.78,0.89-1.72,0.89-2.75C13.75,7.97,13.41,7.03,12.86,6.25z M15.01,6.33c-0.59-0.6-1.38-0.99-2.25-1.09c-0.11-0.88-0.49-1.66-1.09-2.25C13.15,3.65,14.35,4.85,15.01,6.33z M6.33,2.99c-0.6,0.59-0.98,1.38-1.09,2.25C4.36,5.35,3.58,5.73,2.99,6.33C3.65,4.85,4.85,3.65,6.33,2.99z M2.99,11.67c0.59,0.6,1.38,0.99,2.25,1.09c0.11,0.88,0.49,1.66,1.09,2.25C4.85,14.35,3.65,13.15,2.99,11.67z M11.67,15.01c0.6-0.59,0.99-1.38,1.09-2.25c0.88-0.11,1.66-0.49,2.25-1.09C14.35,13.15,13.15,14.35,11.67,15.01z"
         id="path63" />
      <path
         fill="#10106C"
         d="M9,0C4.04,0,0,4.04,0,9c0,4.96,4.04,9,9,9c4.96,0,9-4.04,9-9C18,4.04,13.96,0,9,0z M9,17c-4.41,0-8-3.59-8-8s3.59-8,8-8s8,3.59,8,8S13.41,17,9,17z"
         id="path65" />
    </g>
    <g
       id="dots2">
      <path
         fill="#9C0000"
         d="M9,1.42c-4.18,0-7.58,3.4-7.58,7.58s3.4,7.58,7.58,7.58c4.18,0,7.58-3.4,7.58-7.58S13.18,1.42,9,1.42zM9,15.11c-1.36,0-2.49-0.97-2.75-2.25c0.78,0.56,1.72,0.89,2.75,0.89c1.03,0,1.97-0.34,2.75-0.89C11.49,14.14,10.36,15.11,9,15.11z M9,2.89c1.36,0,2.49,0.97,2.75,2.25C10.97,4.59,10.03,4.25,9,4.25c-1.03,0-1.97,0.34-2.75,0.89C6.51,3.86,7.64,2.89,9,2.89z M12.75,9c0,0.57-0.14,1.11-0.37,1.59C12.04,9.92,11.51,9.37,10.85,9c0.66-0.37,1.19-0.92,1.53-1.59C12.61,7.89,12.75,8.43,12.75,9z M5.25,9c0-0.57,0.14-1.11,0.37-1.59C5.96,8.08,6.49,8.63,7.15,9c-0.66,0.37-1.19,0.92-1.53,1.59C5.39,10.11,5.25,9.57,5.25,9z M11.59,11.7c-1.02-0.27-1.82-1.1-2.03-2.14c1.04,0.21,1.87,1.01,2.14,2.03C11.66,11.63,11.63,11.66,11.59,11.7z M6.3,11.59c0.27-1.02,1.1-1.82,2.15-2.03c-0.21,1.04-1.01,1.87-2.03,2.14C6.37,11.66,6.34,11.63,6.3,11.59z M6.41,6.3c1.02,0.27,1.82,1.1,2.03,2.15C7.4,8.23,6.57,7.43,6.3,6.41C6.34,6.37,6.37,6.34,6.41,6.3z M11.7,6.41c-0.27,1.02-1.1,1.82-2.14,2.03c0.21-1.05,1.01-1.87,2.03-2.15C11.63,6.34,11.66,6.37,11.7,6.41z M9,7.15C8.63,6.49,8.08,5.96,7.41,5.62C7.89,5.39,8.43,5.25,9,5.25s1.11,0.14,1.59,0.37C9.92,5.96,9.37,6.49,9,7.15z M9,10.85c0.37,0.66,0.92,1.19,1.59,1.53c-0.49,0.23-1.02,0.37-1.59,0.37s-1.11-0.14-1.59-0.37C8.08,12.04,8.63,11.51,9,10.85z M5.14,11.75C3.86,11.49,2.89,10.36,2.89,9s0.97-2.49,2.25-2.75C4.59,7.03,4.25,7.97,4.25,9C4.25,10.03,4.59,10.97,5.14,11.75z M12.86,6.25c1.28,0.26,2.25,1.39,2.25,2.75s-0.97,2.49-2.25,2.75c0.56-0.78,0.89-1.72,0.89-2.75C13.75,7.97,13.41,7.03,12.86,6.25z M15.01,6.33c-0.59-0.6-1.38-0.99-2.25-1.09c-0.11-0.88-0.49-1.66-1.09-2.25C13.15,3.65,14.35,4.85,15.01,6.33z M6.33,2.99c-0.6,0.59-0.98,1.38-1.09,2.25C4.36,5.35,3.58,5.73,2.99,6.33C3.65,4.85,4.85,3.65,6.33,2.99z M2.99,11.67c0.59,0.6,1.38,0.99,2.25,1.09c0.11,0.88,0.49,1.66,1.09,2.25C4.85,14.35,3.65,13.15,2.99,11.67z M11.67,15.01c0.6-0.59,0.99-1.38,1.09-2.25c0.88-0.11,1.66-0.49,2.25-1.09C14.35,13.15,13.15,14.35,11.67,15.01z"
         id="path68" />
      <path
         fill="#9C0000"
         d="M9,0C4.04,0,0,4.04,0,9c0,4.96,4.04,9,9,9c4.96,0,9-4.04,9-9C18,4.04,13.96,0,9,0z M9,17c-4.41,0-8-3.59-8-8s3.59-8,8-8s8,3.59,8,8S13.41,17,9,17z"
         id="path70" />
    </g>
    <g
       id="nums">
      <path
         fill="#BA0000"
         d="M18.01,0.14c0,0-4.39,3.33-4.78,3.63c-0.32-0.33-3.2-3.27-3.2-3.27l2.22,8.92l0.6-0.03c0.75-4.76,4.35-6.63,5.33-7.05c0.14,0.2,0.26,0.42,0.26,0.72c0,0.09-0.01,0.18-0.02,0.28c-0.21,1.67-2.39,4.64-6.68,7.21l-0.31,0.18l0.81,1.01l0.2-0.06c0.06-0.02,6.59-2.06,10.36-1.88l1.14,0.05l-0.96-0.63c-0.08-0.05-1.95-1.25-3.93-1.03c0.28-0.63,2.26-2.56,4.15-4.16l0.31-0.26L18.19,0L18.01,0.14z"
         id="path73" />
      <path
         fill="#BA0000"
         d="M33.78,24.64c-0.17-0.17-4.21-4.28-5.63-5.01c-0.53-0.27-1.71-0.18-5.75,0.16c0,0-0.17,0.01-0.43,0.04c1.19-2.79,2.72-5.86,3.57-6.25l0.55-0.25l-2.13-2.09l-0.21,0.03c-5.11,0.87-13.08,2.09-14.11,1.9l-0.35-0.07l-0.12,0.33c-0.2,0.56,0.32,4.93,0.86,7.37C5.45,21.2,0,21.66,0,21.66l0.3,0.56l0.68,1.27l0.32-0.09c1.72-0.51,2.52-0.57,4.6-0.54c0.19,0.49,2.6,6.77,2.6,6.77l0.79-0.2c0,0-0.69-5.69-0.8-6.52c0.78,0.02,7.99,0.22,9.67,0.26c-1.09,0.92-3.56,3.02-3.56,3.02l0.4,0.71c0,0,5.15-1.76,5.41-1.85c0.25,0.1,4.3,1.65,4.3,1.65s-2.13-2.57-2.81-3.38c3.78,0.2,4.75,0.42,5.01,0.74c0.33,0.39,0.5,0.96,0.5,1.6c0,1.16-0.58,2.57-1.8,3.73c-1.82-0.46-5.17-2.34-5.21-2.36l-0.52,0.62L24.96,34l0.24-0.05c3.82-0.78,8.44-8.48,8.63-8.81L34,24.87L33.78,24.64z M21.02,16.65c-1.22,0.16-2.77,0.37-3.21,0.43c0-0.33,0-1.17,0-2c1.62-0.13,3.11-0.25,3.49-0.29C21.25,15.06,21.15,15.77,21.02,16.65z M16.09,15.22c0.02,0.84,0.04,1.75,0.05,2.06c-1.41,0.16-2.6,0.26-3.55,0.3c0.1-0.62,0.19-1.31,0.3-2.1C13.13,15.46,14.51,15.35,16.09,15.22z M12.03,20.65c0.08-0.35,0.17-0.76,0.26-1.24c1.3-0.24,2.61-0.46,3.89-0.63c0.01,0.48,0.03,1.1,0.04,1.52C15.97,20.31,14.26,20.46,12.03,20.65zM17.8,20.17c0-0.48,0-1.18,0-1.6c0.98-0.1,1.36-0.08,1.96-0.02l0.96,0.06c-0.07,0.46-0.14,0.92-0.2,1.35C19.43,20.04,18.19,20.14,17.8,20.17z"
         id="path75" />
    </g>
    <g
       id="flower">
      <rect
         x="1"
         y="1"
         fill="#F8F6D8"
         stroke="#F8F6D8"
         width="43"
         height="67"
         id="rect78" />
      <path
         fill="#D3BB54"
         d="M11.27,58.16l-0.71-8.35c1.76-0.67,2.92-1.76,2.83-2.86c-0.09-1.1-1.42-1.91-3.26-2.16l-0.71-8.36c1.76-0.67,2.92-1.76,2.83-2.86c-0.13-1.56-2.69-2.54-5.71-2.19c-3.02,0.35-5.37,1.89-5.23,3.44c0.09,1.1,1.42,1.91,3.25,2.16l0.71,8.36c-1.76,0.67-2.92,1.76-2.83,2.86c0.09,1.1,1.42,1.91,3.25,2.16l0.71,8.36c-1.76,0.67-2.92,1.76-2.83,2.86c0.13,1.55,2.69,2.53,5.71,2.19c3.02-0.35,5.37-1.89,5.23-3.44C14.43,59.22,13.11,58.41,11.27,58.16z M4.34,34.47c-0.05-0.58,1-1.18,2.34-1.34c1.34-0.15,2.47,0.2,2.52,0.78c0.04,0.49-0.7,0.99-1.74,1.23l0.61,7.13c0.05,0.56-0.19,1.04-0.52,1.08c-0.34,0.04-0.65-0.38-0.7-0.94l-0.61-7.13C5.19,35.28,4.38,34.96,4.34,34.47z M4.57,47.95c-0.05-0.58,1.41-1.23,3.25-1.44c1.85-0.21,3.39,0.09,3.43,0.67c0.05,0.58-1.41,1.23-3.25,1.44C6.15,48.84,4.62,48.54,4.57,47.95z M9.15,62c-1.34,0.15-2.47-0.19-2.52-0.78c-0.04-0.49,0.7-0.99,1.74-1.23l-0.61-7.13c-0.05-0.56,0.19-1.04,0.52-1.08c0.33-0.04,0.65,0.38,0.69,0.94l0.61,7.13c1.06,0,1.87,0.32,1.91,0.81C11.54,61.25,10.49,61.85,9.15,62z"
         id="path80" />
      <path
         fill="none"
         stroke="#7C5A2D"
         stroke-width="0.25"
         d="M11.27,58.16l-0.71-8.35c1.76-0.67,2.92-1.76,2.83-2.86c-0.09-1.1-1.42-1.91-3.26-2.16l-0.71-8.36c1.76-0.67,2.92-1.76,2.83-2.86c-0.13-1.56-2.69-2.54-5.71-2.19c-3.02,0.35-5.37,1.89-5.23,3.44c0.09,1.1,1.42,1.91,3.25,2.16l0.71,8.36c-1.76,0.67-2.92,1.76-2.83,2.86c0.09,1.1,1.42,1.91,3.25,2.16l0.71,8.36c-1.76,0.67-2.92,1.76-2.83,2.86c0.13,1.55,2.69,2.53,5.71,2.19c3.02-0.35,5.37-1.89,5.23-3.44C14.43,59.22,13.11,58.41,11.27,58.16z M4.34,34.47c-0.05-0.58,1-1.18,2.34-1.34c1.34-0.15,2.47,0.2,2.52,0.78c0.04,0.49-0.7,0.99-1.74,1.23l0.61,7.13c0.05,0.56-0.19,1.04-0.52,1.08c-0.34,0.04-0.65-0.38-0.7-0.94l-0.61-7.13C5.19,35.28,4.38,34.96,4.34,34.47z M4.57,47.95c-0.05-0.58,1.41-1.23,3.25-1.44c1.85-0.21,3.39,0.09,3.43,0.67c0.05,0.58-1.41,1.23-3.25,1.44C6.15,48.84,4.62,48.54,4.57,47.95z M9.15,62c-1.34,0.15-2.47-0.19-2.52-0.78c-0.04-0.49,0.7-0.99,1.74-1.23l-0.61-7.13c-0.05-0.56,0.19-1.04,0.52-1.08c0.33-0.04,0.65,0.38,0.69,0.94l0.61,7.13c1.06,0,1.87,0.32,1.91,0.81C11.54,61.25,10.49,61.85,9.15,62z"
         id="path82" />
      <path
         fill="#EADDA7"
         stroke="#7C5A2D"
         stroke-width="0.25"
         d="M5.23,67.99c2.49-8.18-3.33-18.78-3.33-18.78s10.4,10.59,7.48,18.78H5.23z"
         id="path84" />
      <path
         fill="#DBC879"
         d="M19.02,36.17c-2.92-0.98-5.59-0.56-5.97,0.94c-0.27,1.06,0.7,2.38,2.33,3.41l-2.03,8.06c-1.85-0.14-3.28,0.37-3.54,1.43c-0.27,1.06,0.7,2.38,2.33,3.41l-2.03,8.06c-1.84-0.14-3.27,0.37-3.54,1.43c-0.38,1.5,1.68,3.51,4.6,4.5c2.92,0.98,5.59,0.56,5.96-0.94c0.27-1.06-0.7-2.38-2.32-3.41l2.03-8.06c1.85,0.14,3.28-0.37,3.55-1.43c0.27-1.06-0.71-2.38-2.33-3.41l2.03-8.06c1.84,0.14,3.28-0.37,3.54-1.43C23.99,39.16,21.94,37.15,19.02,36.17z M14.41,57.04l-1.73,6.88c0.98,0.45,1.63,1.1,1.51,1.58c-0.14,0.56-1.31,0.66-2.6,0.23c-1.3-0.44-2.23-1.25-2.09-1.81c0.12-0.47,0.97-0.62,2.01-0.39l1.73-6.88c0.13-0.54,0.51-0.88,0.83-0.77C14.39,55.98,14.54,56.5,14.41,57.04z M18.32,52.88c-0.14,0.56-1.7,0.53-3.48-0.07c-1.78-0.6-3.11-1.54-2.97-2.11c0.14-0.56,1.7-0.53,3.48,0.07C17.13,51.37,18.46,52.32,18.32,52.88z M20.68,39.67c-0.12,0.47-0.97,0.62-2.01,0.39l-1.73,6.88c-0.13,0.54-0.51,0.88-0.83,0.77c-0.32-0.11-0.48-0.63-0.34-1.17l1.73-6.88c-0.98-0.45-1.63-1.1-1.51-1.58c0.14-0.56,1.31-0.67,2.6-0.23C19.89,38.3,20.82,39.11,20.68,39.67z"
         id="path86" />
      <path
         fill="none"
         stroke="#7C5A2D"
         stroke-width="0.25"
         d="M19.02,36.17c-2.92-0.98-5.59-0.56-5.97,0.94c-0.27,1.06,0.7,2.38,2.33,3.41l-2.03,8.06c-1.85-0.14-3.28,0.37-3.54,1.43c-0.27,1.06,0.7,2.38,2.33,3.41l-2.03,8.06c-1.84-0.14-3.27,0.37-3.54,1.43c-0.38,1.5,1.68,3.51,4.6,4.5c2.92,0.98,5.59,0.56,5.96-0.94c0.27-1.06-0.7-2.38-2.32-3.41l2.03-8.06c1.85,0.14,3.28-0.37,3.55-1.43c0.27-1.06-0.71-2.38-2.33-3.41l2.03-8.06c1.84,0.14,3.28-0.37,3.54-1.43C23.99,39.16,21.94,37.15,19.02,36.17z M14.41,57.04l-1.73,6.88c0.98,0.45,1.63,1.1,1.51,1.58c-0.14,0.56-1.31,0.66-2.6,0.23c-1.3-0.44-2.23-1.25-2.09-1.81c0.12-0.47,0.97-0.62,2.01-0.39l1.73-6.88c0.13-0.54,0.51-0.88,0.83-0.77C14.39,55.98,14.54,56.5,14.41,57.04z M18.32,52.88c-0.14,0.56-1.7,0.53-3.48-0.07c-1.78-0.6-3.11-1.54-2.97-2.11c0.14-0.56,1.7-0.53,3.48,0.07C17.13,51.37,18.46,52.32,18.32,52.88z M20.68,39.67c-0.12,0.47-0.97,0.62-2.01,0.39l-1.73,6.88c-0.13,0.54-0.51,0.88-0.83,0.77c-0.32-0.11-0.48-0.63-0.34-1.17l1.73-6.88c-0.98-0.45-1.63-1.1-1.51-1.58c0.14-0.56,1.31-0.67,2.6-0.23C19.89,38.3,20.82,39.11,20.68,39.67z"
         id="path88" />
      <path
         fill="#EADA9B"
         stroke="#7C5A2D"
         stroke-width="0.25"
         d="M19.85,67.7c-1.77-5.79,2.35-13.28,2.35-13.28s-7.35,7.49-5.29,13.28H19.85z"
         id="path90" />
      <path
         fill="#BFAA52"
         stroke="#7C5A2D"
         d="M30.33,52.2c-10.89,0-12.13-1.84-15.85-5.97c4.7-3.44,10.9-3.9,16.34,4.82L30.33,52.2z"
         id="path92" />
      <path
         fill="#DBC775"
         d="M27.52,50.68c-6.89,0-7.68-1.16-10.03-3.78c2.98-2.18,6.9-2.47,10.34,3.05L27.52,50.68z"
         id="path94" />
      <path
         fill="#BFAA52"
         stroke="#7C5A2D"
         d="M42.27,47.51c-0.36,2.52-6.85,4.67-9.62,5.14c-2.77,0.47,1.52-5.63,6.18-9.5C41.78,42.64,42.5,45.94,42.27,47.51z"
         id="path96" />
      <path
         fill="#DBC775"
         d="M37.59,49.31c-0.15,1.08-2.95,2.01-4.14,2.21c-1.19,0.2,0.66-2.42,2.66-4.09C37.38,47.21,37.69,48.63,37.59,49.31z"
         id="path98" />
      <path
         fill="#E5D389"
         stroke="#7C5A2D"
         stroke-width="0.75"
         d="M38.25,67.92c-7.82-3.7-5.44-11.92-5.44-18.72l-2.23-0.29c0,0-2.8,17.48,4.83,18.76L38.25,67.92z"
         id="path100" />
      <path
         fill="#BFAA52"
         stroke="#7C5A2D"
         d="M43.33,52.91v7.75c0,0-2.47,2.07-4.21,2.07c-1.73,0-6.93-9.55-6.44-10.59C33.19,51.1,42.84,50.85,43.33,52.91z"
         id="path102" />
      <path
         fill="#DBC775"
         d="M40.06,53.5c1.02,0.72,0,3.43,0,3.43s-1.33,0.91-2.27,0.91c-0.93,0-3.73-4.22-3.47-4.68S39.04,52.79,40.06,53.5z"
         id="path104" />
      <path
         fill="#BFAA52"
         stroke="#7C5A2D"
         d="M31.45,52.39c-12.87-1.29-10.89,4.39-14.11,10.07C27.49,65.3,28.23,57.04,31.45,52.39z"
         id="path106" />
      <path
         fill="#E2CF7F"
         d="M30.26,53.1c-8.21-0.82-6.95,2.8-9,6.42C27.74,61.34,28.21,56.07,30.26,53.1z"
         id="path108" />
      <path
         fill="#BFAA52"
         stroke="#7C5A2D"
         d="M32.93,50.42c0,0,3.69-9.06-0.25-11.11c-4.04-2.11-6.64-1.29-7.13,0c-0.5,1.29,3.91,12.41,5.65,12.66C32.93,52.23,32.93,50.42,32.93,50.42z"
         id="path110" />
      <path
         fill="#DBC775"
         d="M32.14,50.27c0,0,2.05-5.67-0.14-6.95c-2.24-1.32-3.68-0.81-3.96,0c-0.28,0.81,2.17,7.76,3.13,7.92C32.14,51.4,32.14,50.27,32.14,50.27z"
         id="path112" />
      <path
         fill="#EADDA7"
         stroke="#7C5A2D"
         stroke-width="0.25"
         d="M31.45,51.12c0,0-1.48-2.54-1.23-4.87"
         id="path114" />
      <path
         fill="#BFAA52"
         stroke="#7C5A2D"
         d="M30.33,52.6c0,0-4.13,5.57-2.01,5.48c2.41-0.11,2.6,0,5.1,0.46c2.57,0.47,0.2-5.55-1.6-6.32L30.33,52.6z"
         id="path116" />
      <path
         fill="#DBC879"
         stroke="#7C5A2D"
         stroke-width="0.5"
         d="M27.27,48.13c0,0,2.02,2.93,3.35,2.93c1.33,0,0.61,2.18,0,1.56C30,51.99,28.15,50.19,27.05,50C26.23,50,26.04,47.66,27.27,48.13z"
         id="path118" />
      <path
         fill="#D3BB54"
         stroke="#AF9A41"
         d="M44,12.51c-4.46,0-8.54,2.85-8.54,6.37c0,3.52,4.08,6.37,8.54,6.37V12.51z"
         id="path120" />
      <path
         fill="#D3BB54"
         stroke="#AF9A41"
         d="M33.33,7.64c0-3.52-3.62-6.23-8.08-6.23c-4.46,0-8.08,2.71-8.08,6.23s3.62,6.37,8.08,6.37C29.71,14.01,33.33,11.16,33.33,7.64z"
         id="path122" />
      <ellipse
         fill="#D3BB54"
         stroke="#AF9A41"
         cx="29.56"
         cy="17.54"
         rx="8.08"
         ry="6.37"
         id="ellipse124" />
      <path
         fill="#DBC879"
         stroke="#AF9A41"
         d="M44,16.35V1.42H30.9c-2.93,1.56-3.79,4.49-3.79,7.49c0,4.79,4.93,8.68,11.02,8.68C40.21,17.58,42.34,17.13,44,16.35z"
         id="path126" />
      <path
         fill="#D3BB54"
         stroke="#AF9A41"
         d="M31.94,15.47c0,0-0.72,1.82-3.03,1.82"
         id="path128" />
      <path
         fill="#D3BB54"
         stroke="#AF9A41"
         d="M27.19,6.62c0,0-1.73,0.57-3.17-1.02"
         id="path130" />
      <path
         fill="#663333"
         d="M44,0H0v69h45V0H44z M43,2c0,1.91,0,63.09,0,65c-1.86,0-39.14,0-41,0C2,65.09,2,3.91,2,2C3.86,2,41.14,2,43,2z"
         id="path132" />
      <path
         fill="#E2CF7F"
         d="M31.13,52.9c0,0-1.71,2.31-0.83,2.27c1-0.04,1.08,0,2.11,0.19c1.06,0.2,0.08-2.3-0.66-2.62L31.13,52.9z"
         id="path134" />
    </g>
    <g
       id="season">
      <rect
         x="1"
         y="1"
         fill="#E3E4FF"
         width="43"
         height="67"
         id="rect137" />
      <polygon
         fill="#CAE0FF"
         stroke="#99B9FF"
         points="4.69,42.38 9.02,39.76 10.2,44.33 6.26,48.26 8.62,49.89 10.2,48.26 10.98,51.52 14.91,51.19 14.52,47.93 17.27,49.24 18.85,47.28 14.13,44.01 13.34,39.44 19.24,41.4 20.81,45.97 23.56,44.99 22.77,42.7 26.71,44.33 28.28,41.07 23.96,39.44 27.11,38.45 25.92,36.17 20.42,37.8 14.91,35.84 20.03,32.9 25.92,33.88 26.31,31.27 23.17,30.94 26.31,28.98 23.96,26.37 20.81,28 20.81,26.04 18.06,25.71 17.27,30.61 12.55,33.23 11.77,28.66 15.7,24.41 12.95,23.1 11.38,25.06 10.58,21.47 7.05,22.12 7.45,25.39 4.69,24.08 3.12,25.71 7.45,28.66 8.23,33.55 3.12,31.92 1,27.81 1,34.92 1.16,34.86 6.26,36.82 1.55,39.76 1,39.66 1,45.06 1.16,44.99 1,45.91 1,47.31 3.51,47.6"
         id="polygon139" />
      <path
         fill="#99B9FF"
         stroke="#678ED3"
         d="M40.63,26.67c1.1,0,2.17-0.13,3.21-0.35V1.5h-14.3c-2.44,2.67-3.95,6.22-3.95,10.13C25.59,19.94,32.32,26.67,40.63,26.67z"
         id="path141" />
      <polygon
         fill="#C9D3F2"
         stroke="#9EB3E8"
         stroke-width="0.5"
         points="22.61,14.9 22.3,14.59 20.96,16.9 23.27,18.23 23.39,17.81"
         id="polygon143" />
      <polygon
         fill="#C9D3F2"
         stroke="#9EB3E8"
         stroke-width="0.5"
         points="34.45,28.87 34.03,28.98 35.36,31.29 37.67,29.96 37.35,29.65"
         id="polygon145" />
      <polygon
         fill="#798CD8"
         points="43.83,30.1 43.83,29.71 43.59,29.96"
         id="polygon147" />
      <polygon
         fill="#C9D3F2"
         stroke="#9EB3E8"
         stroke-width="0.5"
         points="23.39,5.45 23.27,5.03 20.96,6.36 22.3,8.67 22.61,8.36"
         id="polygon149" />
      <polygon
         fill="#99B9FF"
         stroke="#678ED3"
         points="23.31,15.6 23.31,7.66 22.61,8.36 22.3,8.67 19.34,11.63 22.3,14.59 22.61,14.9"
         id="polygon151" />
      <polygon
         fill="#C9D3F2"
         stroke="#9EB3E8"
         stroke-width="0.5"
         points="26.66,23.47 26.23,23.36 26.23,26.02 28.9,26.02 28.78,25.6"
         id="polygon153" />
      <polygon
         fill="#99B9FF"
         stroke="#678ED3"
         points="37.35,29.65 37.67,29.96 40.63,32.92 43.59,29.96 43.83,29.71 43.83,28.95 36.66,28.95"
         id="polygon155" />
      <polygon
         fill="#99B9FF"
         stroke="#678ED3"
         points="35.41,28.61 28.53,24.64 28.78,25.6 28.9,26.02 29.98,30.07 34.03,28.98 34.45,28.87"
         id="polygon157" />
      <polygon
         fill="#99B9FF"
         stroke="#678ED3"
         points="27.61,23.73 23.64,16.85 23.39,17.81 23.27,18.23 22.19,22.27 26.23,23.36 26.66,23.47"
         id="polygon159" />
      <polygon
         fill="#99B9FF"
         stroke="#678ED3"
         points="23.39,5.45 23.64,6.41 26.48,1.5 22.33,1.5 23.27,5.03 "
         id="polygon161" />
      <path
         fill="#99B9FF"
         stroke="#678ED3"
         d="M30.67,46.67c0,0,2.32-3,7-3c5.67,0,5.67,9.33,5.67,9.33H19.67c0,0-0.33-6.67,7.67-6.67c3.67,0,6,4,6,4"
         id="path163" />
      <line
         fill="#99B9FF"
         stroke="#678ED3"
         x1="29.5"
         y1="57.27"
         x2="24.83"
         y2="65.36"
         id="line165" />
      <line
         fill="#99B9FF"
         stroke="#678ED3"
         x1="34.22"
         y1="55.68"
         x2="28.68"
         y2="65.95"
         id="line167" />
      <line
         fill="#99B9FF"
         stroke="#678ED3"
         x1="23.33"
         y1="61"
         x2="20.5"
         y2="65.91"
         id="line169" />
      <line
         fill="#99B9FF"
         stroke="#678ED3"
         x1="37.46"
         y1="54.63"
         x2="33.25"
         y2="62.59"
         id="line171" />
      <line
         fill="#99B9FF"
         stroke="#678ED3"
         x1="40.46"
         y1="62.17"
         x2="38.13"
         y2="66.21"
         id="line173" />
      <line
         fill="#99B9FF"
         stroke="#678ED3"
         x1="27.11"
         y1="54.52"
         x2="24.44"
         y2="59.14"
         id="line175" />
      <line
         fill="#99B9FF"
         stroke="#678ED3"
         x1="31.67"
         y1="54"
         x2="30.67"
         y2="55.73"
         id="line177" />
      <line
         fill="#99B9FF"
         stroke="#678ED3"
         x1="40.98"
         y1="55.6"
         x2="37.81"
         y2="61.09"
         id="line179" />
      <line
         fill="#99B9FF"
         stroke="#678ED3"
         x1="23.84"
         y1="55.04"
         x2="22.18"
         y2="57.92"
         id="line181" />
      <line
         fill="#99B9FF"
         stroke="#678ED3"
         x1="21.13"
         y1="55.63"
         x2="16.91"
         y2="63.59"
         id="line183" />
      <line
         fill="#99B9FF"
         stroke="#678ED3"
         x1="36"
         y1="63.6"
         x2="35"
         y2="65.33"
         id="line185" />
      <path
         fill="#678ED3"
         d="M44,0H0v69h45V0H44z M43,2c0,1.91,0,63.09,0,65c-1.86,0-39.14,0-41,0C2,65.09,2,3.91,2,2C3.86,2,41.14,2,43,2z"
         id="path187" />
    </g>
  </defs>
  <use
     x="979"
     y="41"
     xlink:href="#nums"
     id="use361"
     width="2752"
     height="176"
     transform="translate(62,8)" />
  <use
     x="1043"
     y="41"
     xlink:href="#nums"
     id="use363"
     width="2752"
     height="176"
     transform="translate(62,8)" />
  <use
     x="1107"
     y="41"
     xlink:href="#nums"
     id="use365"
     width="2752"
     height="176"
     transform="translate(62,8)" />
  <use
     x="1171"
     y="41"
     xlink:href="#nums"
     id="use367"
     width="2752"
     height="176"
     transform="translate(62,8)" />
  <use
     x="1235"
     y="41"
     xlink:href="#nums"
     id="use369"
     width="2752"
     height="176"
     transform="translate(62,8)" />
  <use
     x="1299"
     y="41"
     xlink:href="#nums"
     id="use371"
     width="2752"
     height="176"
     transform="translate(62,8)" />
  <use
     x="1363"
     y="41"
     xlink:href="#nums"
     id="use373"
     width="2752"
     height="176"
     transform="translate(62,8)" />
  <use
     x="1427"
     y="41"
     xlink:href="#nums"
     id="use375"
     width="2752"
     height="176"
     transform="translate(62,8)" />
  <use
     x="1491"
     y="41"
     xlink:href="#nums"
     id="use377"
     width="2752"
     height="176"
     transform="translate(62,8)" />
  <use
     x="2125"
     y="6"
     xlink:href="#season"
     id="use397"
     width="2752"
     height="176"
     transform="translate(62,8)" />
  <use
     x="2189"
     y="6"
     xlink:href="#season"
     id="use399"
     width="2752"
     height="176"
     transform="translate(62,8)" />
  <use
     x="2253"
     y="6"
     xlink:href="#season"
     id="use401"
     width="2752"
     height="176"
     transform="translate(62,8)" />
  <use
     x="2317"
     y="6"
     xlink:href="#season"
     id="use403"
     width="2752"
     height="176"
     transform="translate(62,8)" />
  <use
     x="2445"
     y="6"
     xlink:href="#flower"
     id="use413"
     width="2752"
     height="176"
     transform="translate(-4,8)" />
  <use
     x="2509"
     y="6"
     xlink:href="#flower"
     id="use415"
     width="2752"
     height="176"
     transform="translate(-4,8)" />
  <use
     x="2573"
     y="6"
     xlink:href="#flower"
     id="use417"
     width="2752"
     height="176"
     transform="translate(-4,8)" />
  <use
     x="2637"
     y="6"
     xlink:href="#flower"
     id="use419"
     width="2752"
     height="176"
     transform="translate(-4,8)" />
  <use
     transform="matrix(1.22,0,0,1.22,88.5,24.5)"
     xlink:href="#dots"
     id="use429"
     x="0"
     y="0"
     width="2752"
     height="176" />
  <use
     transform="matrix(1.22,0,0,1.22,88.5,50.5)"
     xlink:href="#dots"
     id="use431"
     x="0"
     y="0"
     width="2752"
     height="176" />
  <use
     transform="translate(144.5,20.5)"
     xlink:href="#dots"
     id="use437"
     x="0"
     y="0"
     width="2752"
     height="176" />
  <use
     transform="translate(154.5,39.5)"
     xlink:href="#dots2"
     id="use441"
     x="0"
     y="0"
     width="2752"
     height="176" />
  <use
     transform="translate(164.5,58.5)"
     xlink:href="#dots"
     id="use445"
     x="0"
     y="0"
     width="2752"
     height="176" />
  <use
     transform="matrix(0.94,0,0,0.94,209,23)"
     xlink:href="#dots"
     id="use449"
     x="0"
     y="0"
     width="2752"
     height="176" />
  <use
     transform="matrix(0.94,0,0,0.94,209,57)"
     xlink:href="#dots"
     id="use451"
     x="0"
     y="0"
     width="2752"
     height="176" />
  <use
     transform="matrix(0.94,0,0,0.94,229,23)"
     xlink:href="#dots"
     id="use457"
     x="0"
     y="0"
     width="2752"
     height="176" />
  <use
     transform="matrix(0.94,0,0,0.94,229,57)"
     xlink:href="#dots"
     id="use459"
     x="0"
     y="0"
     width="2752"
     height="176" />
  <use
     transform="matrix(0.88,0,0,0.88,273.5,21.5)"
     xlink:href="#dots"
     id="use465"
     x="0"
     y="0"
     width="2752"
     height="176" />
  <use
     transform="matrix(0.88,0,0,0.88,273.5,59.5)"
     xlink:href="#dots"
     id="use467"
     x="0"
     y="0"
     width="2752"
     height="176" />
  <use
     transform="matrix(0.88,0,0,0.88,283.5,40.5)"
     xlink:href="#dots2"
     id="use473"
     x="0"
     y="0"
     width="2752"
     height="176" />
  <use
     transform="matrix(0.88,0,0,0.88,293.5,21.5)"
     xlink:href="#dots"
     id="use477"
     x="0"
     y="0"
     width="2752"
     height="176" />
  <use
     transform="matrix(0.88,0,0,0.88,293.5,59.5)"
     xlink:href="#dots"
     id="use479"
     x="0"
     y="0"
     width="2752"
     height="176" />
  <use
     transform="matrix(0.72,0,0,0.72,340,22)"
     xlink:href="#dots"
     id="use485"
     x="0"
     y="0"
     width="2752"
     height="176" />
  <use
     transform="matrix(0.72,0,0,0.72,340,45)"
     xlink:href="#dots2"
     id="use487"
     x="0"
     y="0"
     width="2752"
     height="176" />
  <use
     transform="matrix(0.72,0,0,0.72,340,62)"
     xlink:href="#dots2"
     id="use489"
     x="0"
     y="0"
     width="2752"
     height="176" />
  <use
     transform="matrix(0.72,0,0,0.72,358,22)"
     xlink:href="#dots"
     id="use497"
     x="0"
     y="0"
     width="2752"
     height="176" />
  <use
     transform="matrix(0.72,0,0,0.72,358,45)"
     xlink:href="#dots2"
     id="use499"
     x="0"
     y="0"
     width="2752"
     height="176" />
  <use
     transform="matrix(0.72,0,0,0.72,358,62)"
     xlink:href="#dots2"
     id="use501"
     x="0"
     y="0"
     width="2752"
     height="176" />
  <use
     transform="matrix(0.72,0,0,0.72,399,18)"
     xlink:href="#dots"
     id="use509"
     x="0"
     y="0"
     width="2752"
     height="176" />
  <use
     transform="matrix(0.72,0,0,0.72,404,49)"
     xlink:href="#dots2"
     id="use511"
     x="0"
     y="0"
     width="2752"
     height="176" />
  <use
     transform="matrix(0.72,0,0,0.72,404,66)"
     xlink:href="#dots2"
     id="use513"
     x="0"
     y="0"
     width="2752"
     height="176" />
  <use
     transform="matrix(0.72,0,0,0.72,413,25)"
     xlink:href="#dots"
     id="use515"
     x="0"
     y="0"
     width="2752"
     height="176" />
  <use
     transform="matrix(0.72,0,0,0.72,427,32)"
     xlink:href="#dots"
     id="use517"
     x="0"
     y="0"
     width="2752"
     height="176" />
  <use
     transform="matrix(0.72,0,0,0.72,422,49)"
     xlink:href="#dots2"
     id="use525"
     x="0"
     y="0"
     width="2752"
     height="176" />
  <use
     transform="matrix(0.72,0,0,0.72,422,66)"
     xlink:href="#dots2"
     id="use527"
     x="0"
     y="0"
     width="2752"
     height="176" />
  <use
     transform="matrix(0.72,0,0,0.72,469,18)"
     xlink:href="#dots"
     id="use537"
     x="0"
     y="0"
     width="2752"
     height="176" />
  <use
     transform="matrix(0.72,0,0,0.72,469,34)"
     xlink:href="#dots"
     id="use539"
     x="0"
     y="0"
     width="2752"
     height="176" />
  <use
     transform="matrix(0.72,0,0,0.72,469,50)"
     xlink:href="#dots"
     id="use541"
     x="0"
     y="0"
     width="2752"
     height="176" />
  <use
     transform="matrix(0.72,0,0,0.72,469,66)"
     xlink:href="#dots"
     id="use543"
     x="0"
     y="0"
     width="2752"
     height="176" />
  <use
     transform="matrix(0.72,0,0,0.72,485,18)"
     xlink:href="#dots"
     id="use553"
     x="0"
     y="0"
     width="2752"
     height="176" />
  <use
     transform="matrix(0.72,0,0,0.72,485,34)"
     xlink:href="#dots"
     id="use555"
     x="0"
     y="0"
     width="2752"
     height="176" />
  <use
     transform="matrix(0.72,0,0,0.72,485,50)"
     xlink:href="#dots"
     id="use557"
     x="0"
     y="0"
     width="2752"
     height="176" />
  <use
     transform="matrix(0.72,0,0,0.72,485,66)"
     xlink:href="#dots"
     id="use559"
     x="0"
     y="0"
     width="2752"
     height="176" />
  <use
     transform="matrix(0.72,0,0,0.72,526,22)"
     xlink:href="#dots"
     id="use569"
     x="0"
     y="0"
     width="2752"
     height="176" />
  <use
     transform="matrix(0.72,0,0,0.72,526,42)"
     xlink:href="#dots2"
     id="use571"
     x="0"
     y="0"
     width="2752"
     height="176" />
  <use
     transform="matrix(0.72,0,0,0.72,526,62)"
     xlink:href="#dots"
     id="use573"
     x="0"
     y="0"
     width="2752"
     height="176" />
  <use
     transform="matrix(0.72,0,0,0.72,541,22)"
     xlink:href="#dots"
     id="use581"
     x="0"
     y="0"
     width="2752"
     height="176" />
  <use
     transform="matrix(0.72,0,0,0.72,541,42)"
     xlink:href="#dots2"
     id="use583"
     x="0"
     y="0"
     width="2752"
     height="176" />
  <use
     transform="matrix(0.72,0,0,0.72,541,62)"
     xlink:href="#dots"
     id="use585"
     x="0"
     y="0"
     width="2752"
     height="176" />
  <use
     transform="matrix(0.72,0,0,0.72,556,22)"
     xlink:href="#dots"
     id="use593"
     x="0"
     y="0"
     width="2752"
     height="176" />
  <use
     transform="matrix(0.72,0,0,0.72,556,42)"
     xlink:href="#dots2"
     id="use595"
     x="0"
     y="0"
     width="2752"
     height="176" />
  <use
     transform="matrix(0.72,0,0,0.72,556,62)"
     xlink:href="#dots"
     id="use597"
     x="0"
     y="0"
     width="2752"
     height="176" />
  <use
     transform="matrix(1.18,0,0,1.15,1627,33)"
     xlink:href="#bams"
     id="use605"
     x="0"
     y="0"
     width="2752"
     height="176" />
  <use
     transform="translate(1692,17.5)"
     xlink:href="#bams"
     id="use609"
     x="0"
     y="0"
     width="2752"
     height="176" />
  <use
     transform="translate(1692,52.5)"
     xlink:href="#bams"
     id="use611"
     x="0"
     y="0"
     width="2752"
     height="176" />
  <use
     transform="translate(1744,52.5)"
     xlink:href="#bams"
     id="use617"
     x="0"
     y="0"
     width="2752"
     height="176" />
  <use
     transform="translate(1756,17.5)"
     xlink:href="#bams"
     id="use621"
     x="0"
     y="0"
     width="2752"
     height="176" />
  <use
     transform="translate(1767,52.5)"
     xlink:href="#bams"
     id="use625"
     x="0"
     y="0"
     width="2752"
     height="176" />
  <use
     transform="translate(1808,17.5)"
     xlink:href="#bams"
     id="use629"
     x="0"
     y="0"
     width="2752"
     height="176" />
  <use
     transform="translate(1808,52.5)"
     xlink:href="#bams"
     id="use631"
     x="0"
     y="0"
     width="2752"
     height="176" />
  <use
     transform="translate(1832,17.5)"
     xlink:href="#bams"
     id="use637"
     x="0"
     y="0"
     width="2752"
     height="176" />
  <use
     transform="translate(1832,52.5)"
     xlink:href="#bams"
     id="use639"
     x="0"
     y="0"
     width="2752"
     height="176" />
  <use
     transform="matrix(0.91,0,0,0.925,1872,18.5)"
     xlink:href="#bams"
     id="use645"
     x="0"
     y="0"
     width="2752"
     height="176" />
  <use
     transform="matrix(0.91,0,0,0.925,1872,53.5)"
     xlink:href="#bams"
     id="use647"
     x="0"
     y="0"
     width="2752"
     height="176" />
  <use
     transform="matrix(0.91,0,0,0.925,1884.5,36)"
     xlink:href="#bams2"
     id="use655"
     x="0"
     y="0"
     width="2752"
     height="176" />
  <use
     transform="matrix(0.91,0,0,0.925,1897,18.5)"
     xlink:href="#bams"
     id="use657"
     x="0"
     y="0"
     width="2752"
     height="176" />
  <use
     transform="matrix(0.91,0,0,0.925,1897,53.5)"
     xlink:href="#bams"
     id="use659"
     x="0"
     y="0"
     width="2752"
     height="176" />
  <use
     transform="matrix(0.82,0,0,0.85,1937,20.5)"
     xlink:href="#bams"
     id="use665"
     x="0"
     y="0"
     width="2752"
     height="176" />
  <use
     transform="matrix(0.82,0,0,0.85,1937,53.5)"
     xlink:href="#bams"
     id="use667"
     x="0"
     y="0"
     width="2752"
     height="176" />
  <use
     transform="matrix(0.82,0,0,0.85,1949,20.5)"
     xlink:href="#bams"
     id="use673"
     x="0"
     y="0"
     width="2752"
     height="176" />
  <use
     transform="matrix(0.82,0,0,0.85,1949,53.5)"
     xlink:href="#bams"
     id="use675"
     x="0"
     y="0"
     width="2752"
     height="176" />
  <use
     transform="matrix(0.82,0,0,0.85,1961,20.5)"
     xlink:href="#bams"
     id="use681"
     x="0"
     y="0"
     width="2752"
     height="176" />
  <use
     transform="matrix(0.82,0,0,0.85,1961,53.5)"
     xlink:href="#bams"
     id="use683"
     x="0"
     y="0"
     width="2752"
     height="176" />
  <use
     transform="matrix(0.73,0,0,0.66,2001.5,39.5)"
     xlink:href="#bams"
     id="use689"
     x="0"
     y="0"
     width="2752"
     height="176" />
  <use
     transform="matrix(0.73,0,0,0.66,2013.5,39.5)"
     xlink:href="#bams"
     id="use691"
     x="0"
     y="0"
     width="2752"
     height="176" />
  <use
     transform="matrix(0.73,0,0,0.66,2025.5,39.5)"
     xlink:href="#bams"
     id="use693"
     x="0"
     y="0"
     width="2752"
     height="176" />
  <use
     transform="matrix(0.73,0,0,0.66,2001.5,58.5)"
     xlink:href="#bams"
     id="use695"
     x="0"
     y="0"
     width="2752"
     height="176" />
  <use
     transform="matrix(0.73,0,0,0.66,2013.5,58.5)"
     xlink:href="#bams"
     id="use697"
     x="0"
     y="0"
     width="2752"
     height="176" />
  <use
     transform="matrix(0.73,0,0,0.66,2025.5,58.5)"
     xlink:href="#bams"
     id="use699"
     x="0"
     y="0"
     width="2752"
     height="176" />
  <use
     transform="matrix(0.73,0,0,0.66,2013.5,20.5)"
     xlink:href="#bams2"
     id="use713"
     x="0"
     y="0"
     width="2752"
     height="176" />
  <use
     transform="matrix(0.73,0,0,0.77,2065.5,21.5)"
     xlink:href="#bams"
     id="use717"
     x="0"
     y="0"
     width="2752"
     height="176" />
  <use
     transform="matrix(0.73,0,0,0.77,2065.5,54.5)"
     xlink:href="#bams"
     id="use719"
     x="0"
     y="0"
     width="2752"
     height="176" />
  <use
     transform="matrix(0.73,0,0,0.77,2089.5,21.5)"
     xlink:href="#bams"
     id="use725"
     x="0"
     y="0"
     width="2752"
     height="176" />
  <use
     transform="matrix(0.73,0,0,0.77,2089.5,54.5)"
     xlink:href="#bams"
     id="use727"
     x="0"
     y="0"
     width="2752"
     height="176" />
  <use
     transform="matrix(0.73,0,0,0.66,2129.5,20.5)"
     xlink:href="#bams"
     id="use733"
     x="0"
     y="0"
     width="2752"
     height="176" />
  <use
     transform="matrix(0.73,0,0,0.66,2129.5,39.5)"
     xlink:href="#bams"
     id="use735"
     x="0"
     y="0"
     width="2752"
     height="176" />
  <use
     transform="matrix(0.73,0,0,0.66,2129.5,58.5)"
     xlink:href="#bams"
     id="use737"
     x="0"
     y="0"
     width="2752"
     height="176" />
  <use
     transform="matrix(0.73,0,0,0.66,2141.5,20.5)"
     xlink:href="#bams2"
     id="use745"
     x="0"
     y="0"
     width="2752"
     height="176" />
  <use
     transform="matrix(0.73,0,0,0.66,2141.5,39.5)"
     xlink:href="#bams2"
     id="use747"
     x="0"
     y="0"
     width="2752"
     height="176" />
  <use
     transform="matrix(0.73,0,0,0.66,2141.5,58.5)"
     xlink:href="#bams2"
     id="use749"
     x="0"
     y="0"
     width="2752"
     height="176" />
  <use
     transform="matrix(0.73,0,0,0.66,2153.5,20.5)"
     xlink:href="#bams"
     id="use757"
     x="0"
     y="0"
     width="2752"
     height="176" />
  <use
     transform="matrix(0.73,0,0,0.66,2153.5,39.5)"
     xlink:href="#bams"
     id="use759"
     x="0"
     y="0"
     width="2752"
     height="176" />
  <use
     transform="matrix(0.73,0,0,0.66,2153.5,58.5)"
     xlink:href="#bams"
     id="use761"
     x="0"
     y="0"
     width="2752"
     height="176" />
  <path
     d="m 2093.75,37.81 c -0.41,-0.59 -1.51,-0.57 -2.75,-0.06 l -3.11,-4.44 c 0.9,-1 1.3,-2.02 0.89,-2.61 -0.41,-0.58 -1.51,-0.57 -2.75,-0.06 l -3.11,-4.44 c 0.9,-1 1.3,-2.02 0.89,-2.61 -0.58,-0.83 -2.51,-0.47 -4.32,0.8 -1.81,1.27 -2.81,2.96 -2.23,3.79 0.41,0.59 1.51,0.57 2.75,0.06 l 3.11,4.44 c -0.9,1 -1.3,2.02 -0.89,2.61 0.41,0.59 1.51,0.57 2.75,0.06 l 3.11,4.44 c -0.9,1 -1.3,2.02 -0.89,2.61 0.58,0.83 2.51,0.47 4.32,-0.8 1.81,-1.27 2.81,-2.96 2.23,-3.79 z m -10.56,-7.33 -2.65,-3.79 c -0.67,0.38 -1.29,0.49 -1.47,0.22 -0.22,-0.31 0.26,-1.02 1.06,-1.58 0.8,-0.56 1.63,-0.77 1.85,-0.46 0.18,0.26 -0.13,0.8 -0.71,1.3 l 2.65,3.79 c 0.21,0.3 0.21,0.65 0.01,0.79 -0.2,0.15 -0.53,0.02 -0.74,-0.27 z m 0.31,3.92 c -0.22,-0.31 0.5,-1.19 1.61,-1.96 1.11,-0.78 2.18,-1.15 2.4,-0.84 0.22,0.31 -0.5,1.19 -1.61,1.96 -1.11,0.77 -2.19,1.15 -2.4,0.84 z m 7.37,6.27 c -0.8,0.56 -1.63,0.77 -1.85,0.46 -0.18,-0.26 0.13,-0.8 0.71,-1.3 l -2.65,-3.79 c -0.21,-0.29 -0.21,-0.65 -0.01,-0.79 0.2,-0.14 0.53,-0.02 0.74,0.28 l 2.65,3.79 c 0.67,-0.38 1.29,-0.49 1.47,-0.22 0.22,0.29 -0.26,1 -1.06,1.57 z"
     id="path769"
     inkscape:connector-curvature="0"
     style="fill:#006c00" />
  <path
     d="m 2083.52,24.4 c -1.81,-1.27 -3.75,-1.62 -4.32,-0.8 -0.41,0.58 -0.02,1.61 0.89,2.61 l -3.11,4.44 c -1.25,-0.51 -2.35,-0.53 -2.75,0.06 -0.41,0.59 -0.02,1.61 0.89,2.61 l -3.11,4.44 c -1.25,-0.51 -2.34,-0.53 -2.75,0.06 -0.58,0.83 0.42,2.52 2.23,3.79 1.81,1.27 3.75,1.63 4.32,0.8 0.41,-0.59 0.02,-1.61 -0.89,-2.61 l 3.11,-4.44 c 1.25,0.51 2.34,0.53 2.75,-0.06 0.41,-0.58 0.02,-1.61 -0.89,-2.61 l 3.11,-4.44 c 1.25,0.51 2.34,0.53 2.75,-0.06 0.58,-0.83 -0.42,-2.52 -2.23,-3.79 z m -7.6,11.63 -2.65,3.79 c 0.58,0.5 0.9,1.04 0.71,1.31 -0.22,0.31 -1.04,0.11 -1.85,-0.46 -0.81,-0.57 -1.28,-1.27 -1.06,-1.58 0.18,-0.26 0.8,-0.15 1.47,0.22 l 2.65,-3.79 c 0.21,-0.3 0.54,-0.42 0.74,-0.28 0.2,0.14 0.2,0.5 -0.01,0.79 z m 3.58,-1.63 c -0.22,0.31 -1.29,-0.07 -2.4,-0.84 -1.11,-0.77 -1.83,-1.65 -1.61,-1.96 0.22,-0.31 1.29,0.07 2.4,0.84 1.11,0.77 1.83,1.65 1.61,1.96 z m 4.43,-7.49 c -0.18,0.26 -0.8,0.15 -1.47,-0.22 l -2.65,3.79 c -0.21,0.3 -0.54,0.42 -0.74,0.28 -0.2,-0.14 -0.2,-0.49 0.01,-0.79 l 2.65,-3.79 c -0.58,-0.5 -0.9,-1.04 -0.71,-1.3 0.22,-0.31 1.04,-0.11 1.85,0.46 0.81,0.57 1.28,1.26 1.06,1.57 z"
     id="path771"
     inkscape:connector-curvature="0"
     style="fill:#006c00" />
  <path
     d="m 2085.75,68.81 c -0.41,-0.59 -1.51,-0.57 -2.75,-0.06 l -3.11,-4.44 c 0.9,-1 1.3,-2.02 0.89,-2.61 -0.41,-0.59 -1.51,-0.56 -2.75,-0.06 l -3.11,-4.44 c 0.9,-1 1.3,-2.02 0.89,-2.61 -0.58,-0.83 -2.51,-0.47 -4.32,0.8 -1.81,1.27 -2.81,2.96 -2.23,3.79 0.41,0.59 1.51,0.57 2.75,0.06 l 3.11,4.44 c -0.9,1 -1.3,2.02 -0.89,2.61 0.41,0.58 1.51,0.56 2.75,0.06 l 3.11,4.44 c -0.9,1 -1.3,2.02 -0.89,2.61 0.58,0.83 2.51,0.47 4.32,-0.8 1.81,-1.27 2.81,-2.96 2.23,-3.79 z m -10.56,-7.33 -2.65,-3.79 c -0.67,0.38 -1.29,0.49 -1.47,0.22 -0.22,-0.31 0.26,-1.02 1.06,-1.58 0.8,-0.56 1.63,-0.77 1.85,-0.46 0.18,0.26 -0.13,0.8 -0.71,1.3 l 2.65,3.79 c 0.21,0.29 0.21,0.65 0.01,0.79 -0.2,0.15 -0.53,0.02 -0.74,-0.27 z m 0.31,3.92 c -0.22,-0.31 0.5,-1.19 1.61,-1.96 1.11,-0.78 2.18,-1.15 2.4,-0.84 0.22,0.31 -0.5,1.19 -1.61,1.96 -1.11,0.78 -2.19,1.15 -2.4,0.84 z m 7.37,6.27 c -0.8,0.56 -1.63,0.77 -1.85,0.46 -0.18,-0.26 0.13,-0.8 0.71,-1.3 l -2.65,-3.79 c -0.21,-0.3 -0.21,-0.65 -0.01,-0.79 0.2,-0.14 0.53,-0.02 0.74,0.28 l 2.65,3.79 c 0.67,-0.38 1.29,-0.49 1.47,-0.22 0.22,0.3 -0.26,1 -1.06,1.57 z"
     id="path781"
     inkscape:connector-curvature="0"
     style="fill:#006c00" />
  <path
     d="m 2091.52,55.4 c -1.81,-1.27 -3.75,-1.63 -4.32,-0.8 -0.41,0.59 -0.02,1.61 0.89,2.61 l -3.11,4.44 c -1.25,-0.51 -2.34,-0.53 -2.75,0.06 -0.41,0.59 -0.02,1.61 0.89,2.61 l -3.11,4.44 c -1.25,-0.51 -2.34,-0.53 -2.75,0.06 -0.58,0.83 0.42,2.52 2.23,3.79 1.81,1.27 3.75,1.62 4.32,0.8 0.41,-0.58 0.02,-1.61 -0.89,-2.61 l 3.11,-4.44 c 1.25,0.51 2.35,0.53 2.75,-0.06 0.41,-0.59 0.02,-1.61 -0.89,-2.61 l 3.11,-4.44 c 1.25,0.51 2.34,0.53 2.75,-0.06 0.58,-0.83 -0.42,-2.52 -2.23,-3.79 z m -7.6,11.63 -2.65,3.79 c 0.58,0.5 0.9,1.04 0.71,1.3 -0.22,0.31 -1.04,0.11 -1.85,-0.46 -0.8,-0.56 -1.28,-1.27 -1.06,-1.58 0.18,-0.26 0.8,-0.15 1.47,0.22 l 2.65,-3.79 c 0.21,-0.3 0.54,-0.42 0.74,-0.28 0.2,0.16 0.2,0.51 -0.01,0.8 z m 3.58,-1.63 c -0.22,0.31 -1.29,-0.07 -2.4,-0.84 -1.11,-0.77 -1.83,-1.65 -1.61,-1.96 0.22,-0.31 1.29,0.07 2.4,0.84 1.11,0.77 1.83,1.65 1.61,1.96 z m 4.43,-7.48 c -0.18,0.26 -0.8,0.15 -1.47,-0.22 l -2.65,3.79 c -0.21,0.29 -0.54,0.42 -0.74,0.28 -0.2,-0.14 -0.2,-0.49 0.01,-0.79 l 2.65,-3.79 c -0.58,-0.5 -0.9,-1.04 -0.71,-1.3 0.22,-0.31 1.04,-0.11 1.85,0.46 0.8,0.55 1.28,1.26 1.06,1.57 z"
     id="path783"
     inkscape:connector-curvature="0"
     style="fill:#006c00" />
  <path
     d="m 1233.2,20.1 6.8,19.4 0.3,-0.1 c 3.6,-1.2 13.3,-4.1 15.3,-2.6 0.2,0.2 0.3,0.4 0.3,0.7 l -0.1,0.8 0.6,-0.5 c 6.8,-5.3 9.4,-14 9.4,-14.1 l 0,-0.2 -0.1,-0.1 c -4.9,-7.3 -24.9,-1.3 -25.7,-1 l -0.2,0.1 0,0.2 c 0,0 -0.2,1.7 -0.2,2.4 -0.4,-1.5 -1.1,-4.1 -1.1,-4.1 l -5.6,-1.3 0.3,0.4 z m 6.9,5.7 c 1.2,-0.3 2.6,-0.7 4,-1 0,0 0,0 0,0 0,0 1.9,9.3 2,9.9 -0.5,0.1 -3,0.8 -3.6,1 -0.1,-0.4 -1.4,-5.6 -2.5,-9.9 0,0.1 0.1,0 0.1,0 z m 11.7,-2.3 c 0,0.1 -0.4,9.6 -0.4,10.2 -0.4,0.1 -2.1,0.4 -2.6,0.5 -0.1,-0.6 -1.8,-9.6 -1.8,-9.9 1.7,-0.4 3.3,-0.6 4.8,-0.8 z m 7.9,0.9 c -0.2,2.3 -1.1,8.1 -2.6,9.9 -0.1,-0.1 0,-0.2 -0.1,-0.3 -0.5,-0.5 -1.6,-0.7 -3.3,-0.6 0.3,-4.5 1,-7.5 1.9,-7.9 l 0.7,-0.3 c 0,0 -3.5,-1.7 -3.8,-1.8 3.8,-0.4 6.8,-0.3 7.2,1 z"
     id="path785"
     inkscape:connector-curvature="0"
     style="fill:#20208c" />
  <path
     d="m 1065.8,26.1 c -0.3,0.2 -0.4,0.5 -0.4,0.8 0,0.3 0.1,0.5 0.1,0.7 -2.6,0.2 -19.7,1.8 -23.9,1.4 l -0.4,0 1.7,6 0.3,-0.1 c 3.3,-1.1 24.1,-2.4 29,-1.4 0.8,0.1 1.2,0 1.4,-0.4 0.5,-1 -1.9,-3.5 -3.4,-4.8 -0.9,-0.9 -3.4,-2.8 -4.4,-2.2 z"
     id="path787"
     inkscape:connector-curvature="0"
     style="fill:#20208c" />
  <path
     d="m 1129.9,31.9 c -0.3,0.2 -0.4,0.5 -0.4,0.9 0,0.2 0,0.5 0.1,0.7 -2.8,0.3 -19.9,1.9 -24.1,1.4 l -0.5,-0.1 1.7,6.2 0.4,-0.1 c 3.3,-1.2 24.3,-2.4 29.3,-1.4 0.8,0.2 1.3,0 1.5,-0.4 0.7,-1.3 -3,-4.6 -3.4,-4.9 -1,-1 -3.5,-3 -4.6,-2.3 z"
     id="path789"
     inkscape:connector-curvature="0"
     style="fill:#20208c" />
  <path
     d="m 1122.1,20.9 c -2.6,0.9 -6.2,2.2 -12.3,2.2 l -0.7,0 2.9,4.2 16.7,-2.2 0.5,-3.1 -0.1,-0.1 c -2.4,-2.7 -4.1,-2.1 -7,-1 z"
     id="path791"
     inkscape:connector-curvature="0"
     style="fill:#20208c" />
  <path
     d="m 1193.7,34.3 c -0.3,0.2 -0.4,0.5 -0.4,0.9 0,0.3 0,0.5 0.1,0.7 -2.7,0.3 -19.3,1.9 -23.4,1.4 l -0.5,-0.1 1.7,6.2 0.3,-0.1 c 3.2,-1.2 23.6,-2.4 28.4,-1.4 0.8,0.2 1.3,0 1.5,-0.4 0.6,-1.3 -2.9,-4.6 -3.3,-5 -1,-0.8 -3.4,-2.9 -4.4,-2.2 z"
     id="path793"
     inkscape:connector-curvature="0"
     style="fill:#20208c" />
  <polygon
     points="1114,20.4 1115.6,24.7 1127.6,23.3 1125.6,19 1125.3,19 "
     id="polygon795"
     style="fill:#20208c"
     transform="translate(62,8)" />
  <path
     d="m 1184.9,16.6 c -3,1.1 -7,2.6 -14,2.6 l -0.6,0 3.2,4.9 18.9,-2.6 0.6,-3.6 -0.1,-0.1 c -2.7,-3.2 -4.6,-2.5 -8,-1.2 z"
     id="path797"
     inkscape:connector-curvature="0"
     style="fill:#20208c" />
  <path
     d="m 1307.8,18.3 -10.3,10.5 0.4,0.5 c 0,0 5.6,-3.2 7,-4 -0.6,1.5 -4.3,11.6 -4.3,11.6 l 3.3,3.5 c 0,0 2.4,-15.6 2.4,-15.9 0.3,-0.2 5.1,-2.9 5.1,-2.9 l -3.4,-3.7 -0.2,0.4 z"
     id="path799"
     inkscape:connector-curvature="0"
     style="fill:#20208c" />
  <path
     d="m 1320.6,18.2 h -1.9 c 0,0 -0.6,1.3 -0.9,1.9 0,0 -0.1,-0.1 -0.1,-0.1 l -5.9,3.5 0.2,0.7 c 0,0 3,-0.2 3.9,-0.2 -0.4,0.8 -2.2,4.5 -2.3,4.8 -0.4,0 -6.3,0.5 -6.3,0.5 l -0.1,0.7 4,1.6 c 0,0 0.7,-0.3 1.3,-0.5 -0.6,1.2 -2.5,5.2 -2.7,5.5 -1.3,0.1 -2.3,0.1 -2.9,0 l -0.4,0 0.5,3.7 0.3,-0.1 c 1.4,-0.2 12.2,-1.6 14.1,-1.7 1.8,-0.1 7.3,2.1 7.4,2.1 l 0.7,0.3 -0.2,-0.7 c -0.1,-0.4 -1.3,-3.9 -2.2,-4.8 l -0.1,-0.1 -0.1,0 c -0.8,-0.2 -3.6,0 -7.5,0.4 0.9,-1 4.3,-4.6 4.3,-4.6 l -3.2,-3.4 c 0,0 -2.9,7.8 -3,8.2 -0.3,0 -2.7,0.3 -3.5,0.3 0.4,-0.9 2.5,-6.5 2.6,-6.7 0.3,-0.1 3.2,-1.2 3.2,-1.2 l -0.2,-0.7 c 0,0 -1.7,0.3 -2.5,0.4 0.3,-0.9 1.6,-4.1 1.7,-4.4 0.2,0 1.2,-0.1 1.2,-0.1 0,0 -0.6,-0.9 -0.7,-1.1 0.1,-0.3 1.7,-4.4 1.7,-4.4 h -0.4 z"
     id="path801"
     inkscape:connector-curvature="0"
     style="fill:#20208c" />
  <path
     d="m 1375.2,17.8 c 0,0.3 0,0.6 0,1 0,1.6 -0.2,3.7 -0.7,6.2 -5.9,0.7 -11.1,1.5 -11.2,1.5 l -0.3,0 V 29 c 0,0 9.9,-0.4 10.7,-0.5 -0.2,0.7 -1,4 -1,4 l 0.6,0.3 c 0,0 2.9,-4.1 3.1,-4.4 11.7,-0.3 14.4,0.2 15,0.5 l 0.6,0.4 -0.6,-3.5 c -0.3,-1 -2,-2.1 -12.2,-1.3 0.6,-0.9 3.2,-4.6 3.2,-4.6 l -7.2,-2.7 0,0.6 z"
     id="path803"
     inkscape:connector-curvature="0"
     style="fill:#20208c" />
  <path
     d="m 1369.6,32.8 c 0,0 0.8,4.7 -1.6,8.5 l 0.5,0.5 c 4.4,-2.9 5.9,-6.6 5.9,-6.7 l 0.1,-0.3 -5,-2.6 0.1,0.6 z"
     id="path805"
     inkscape:connector-curvature="0"
     style="fill:#20208c" />
  <path
     d="m 1379.1,31.7 c 0.2,0.3 5.9,7.7 7.9,9.6 l 0.1,0.1 0.2,0 c 0.4,0 0.8,-0.3 1.1,-0.7 0.8,-1.1 1.3,-3.2 1,-4.3 -0.4,-1.3 -7.6,-4.3 -9.8,-5.2 l -1.2,-0.5 0.7,1 z"
     id="path807"
     inkscape:connector-curvature="0"
     style="fill:#20208c" />
  <path
     d="m 1449.2,19.7 0,0 c -0.2,0.4 -1.5,1.9 -8.3,7.6 -0.1,-0.7 -0.2,-1.6 -0.2,-1.6 -0.2,-1.9 -0.4,-4.1 -0.8,-6.5 l -0.1,-0.3 -3.2,0.3 0,0.3 c 0,0.6 0,1.1 0,1.7 0,3.3 0.3,6.2 0.9,8.9 -0.3,0.2 -10,8.2 -10,8.2 l 0.3,0.3 1.9,1.8 c 0,0 7.9,-6.9 8.6,-7.6 0.7,2.2 1.6,4 2.7,5 2,2 4.2,1.7 7,1.3 2,-0.3 4.3,-0.6 7,-0.2 l 0.5,0.1 -0.6,-2.8 c 0,-0.6 -0.3,-1.1 -0.7,-1.5 -1.3,-0.9 -3.8,-0.4 -6.5,0.1 -1.3,0.3 -2.7,0.5 -3.9,0.6 -1.3,-1.2 -2.1,-2.8 -2.6,-5.2 7.5,-6.2 10.3,-7.8 11.3,-8.1 l 0.2,-0.1 0,-0.3 c 0,-0.2 0,-0.3 0,-0.4 0,-1.8 -0.9,-2.8 -1.7,-3 -0.5,0.1 -1.3,0.3 -1.8,1.4 z"
     id="path809"
     inkscape:connector-curvature="0"
     style="fill:#20208c" />
  <path
     d="m 1494.4,27 c 0,3.7 -4.5,9.2 -4.7,9.4 l -0.7,0.9 1.1,-0.3 c 5.2,-1.4 8.2,-5 8.3,-5.1 l 0.2,-0.2 -4.2,-5.7 v 1 z"
     id="path811"
     inkscape:connector-curvature="0"
     style="fill:#20208c" />
  <path
     d="m 1499.9,19.3 -2,0.3 0.3,0.5 c 0.1,0.2 9.3,15.7 10.6,19.3 l 0.1,0.3 0.3,-0.1 c 2.2,-0.4 4,-0.2 5.8,0 2.2,0.2 4.3,0.4 6.7,-0.4 l 0.4,-0.1 -0.2,-0.4 c -1.2,-2 -2.5,-2.4 -4.2,-2.9 -3.2,-0.9 -8,-2.3 -17.3,-16.3 l -0.1,-0.2 -0.4,0 z"
     id="path813"
     inkscape:connector-curvature="0"
     style="fill:#20208c" />
  <path
     d="m 1582.6,31.6 c 0,0 -2.9,3.2 -3.1,3.4 -3.2,0.7 -8.4,1.2 -8.8,-0.4 -0.5,-1.9 3.4,-10.4 4.9,-13.6 l 0.2,-0.3 -5.6,-2.8 -0.1,0.4 c -0.1,0.2 -0.4,1.3 -0.9,3 -2,0 -4.2,0 -4.5,0 0,-0.4 -0.1,-1.3 -0.1,-1.3 l 0,0 c -1.4,-2.3 -7.4,-0.7 -8.1,-0.6 l -0.4,0.1 0.2,0.4 c 0.2,0.4 0.4,0.9 0.5,1.4 -0.8,0 -3.8,0 -3.8,0 l 1.9,3.6 c 0,0 1.8,-0.3 2.4,-0.4 0,0.2 0,0.5 0,0.7 0,6.2 -2.7,14.1 -2.7,14.2 l 0.6,0.3 c 0.3,-0.4 7.9,-9.5 9.3,-16.4 0.2,0 2.4,-0.4 4.4,-0.7 -1.2,4.7 -2.6,12.1 -0.3,14.8 3.4,4 16.6,3.7 17.1,3.5 l 0.3,-0.1 -3.4,-9.2 z"
     id="path815"
     inkscape:connector-curvature="0"
     style="fill:#20208c" />
  <path
     d="m 688.4,22.3 c -8.5,5.7 -21.5,6.9 -28.8,5.9 l -0.9,2 c 11.7,3.8 26.4,1 31.2,-3.2 l -1.5,-4.7 z"
     id="path851"
     inkscape:connector-curvature="0"
     style="fill:#101040" />
  <path
     d="m 692.5,47.2 c -3.6,-0.9 -7.3,-1.4 -10.8,-1.7 0.8,-2.9 1.2,-6 1,-9.2 l -7.8,2 c 0.6,1.7 0.6,4.3 0.2,7 -1.6,0 -3.1,0.1 -4.5,0.3 0.2,-2.7 0.4,-3.3 -0.5,-6 l -4.7,1.3 c 1,1.8 1.5,2.3 1.8,5.1 -3.4,1 -5.7,1.8 -6.9,3.2 -5.1,6.1 0,23.2 0,23.2 0,0 -0.2,-15.4 2,-17 2.2,-1.6 4.7,-1.8 4.7,-1.8 0.1,1.5 -1.6,6.7 -1.6,6.7 2.2,-2.7 3.2,-3.6 4.3,-7.2 1.6,-0.5 2.5,-0.8 4.1,-1 -1.6,6.1 -4.5,10.9 -4.5,10.9 l 7.4,2 c -4.1,-0.1 -13.3,5.1 -13.3,5.1 0,0 16.2,-4 20.8,-1.1 l 1.2,-2.9 c -3.4,-2.7 -10.5,-4.9 -10.5,-4.9 0,0 2.2,-4.1 4.6,-9.4 2.3,0.1 5.6,0.3 7.7,0.9 9.2,4.1 -1.7,22.4 -1.7,22.4 0,0 20.2,-21.2 7,-27.9 z"
     id="path853"
     inkscape:connector-curvature="0"
     style="fill:#101040" />
  <path
     d="m 735.3,22.2 c 0.4,0.5 0.9,2.3 0.9,8.6 0,0.9 0,1.8 0,2.8 -3.4,0.5 -6.3,1 -6.8,1.2 l -0.6,0.2 2.8,2.7 0.2,-0.1 c 1.1,-0.3 2.6,-0.5 4.2,-0.7 0,0.7 -0.4,7.3 -0.4,7.9 -4.9,0.4 -9.2,1.1 -12.7,1.9 -3,0.8 -4.8,2.6 -5.2,5.4 -0.1,0.4 -0.1,0.9 -0.1,1.4 0,7.1 6.9,16.9 7,16.9 l 0.8,0.5 -0.3,-0.9 c 0,-0.1 -2.8,-9.4 -2.8,-15.6 0,-1.8 0.2,-3.3 0.8,-4.3 0.4,-0.6 0.8,-0.9 1.4,-1 1.3,-0.2 2.7,-0.4 4,-0.6 0,0 3.1,4 3.7,4.7 -0.5,0.1 -1.4,0.3 -1.4,0.3 l 0,0.3 0.2,2.2 0.4,-0.1 c 0.6,-0.2 1.8,-0.5 3.2,-0.7 0,0.6 0.1,2.4 0.2,2.9 -1.7,0.5 -3.2,1.1 -3.8,1.4 l -0.4,0.2 1.5,1.6 0.2,-0.1 c 0.7,-0.3 1.7,-0.6 2.7,-0.9 0,0.7 0.3,5.6 0.3,5.6 l 0.7,0 c 0,0 1.1,-5.5 1.2,-6 1.8,-0.2 3.5,-0.1 4.8,0.2 l 0.4,0.1 v -3 l -0.2,-0.1 c -0.8,-0.4 -2.3,-0.4 -4.5,0.1 0.1,-0.7 0.4,-2.1 0.5,-2.5 1.6,-0.1 2.9,-0.2 3.8,-0.1 l 0.5,0.1 -0.7,-2.6 c 0,0 -0.9,0 -1.4,0.1 0.8,-0.9 3.5,-4.4 3.7,-4.6 0.3,0 3.9,0.1 3.9,0.1 1.6,0.1 3,0.7 4.1,2 1.3,1.5 2,3.9 2,6.3 0,0.5 0,1.1 -0.1,1.6 l -0.1,0.7 c -0.7,5.1 -1.3,8.8 -3.1,9.6 -1.2,0.5 -3.1,-0.3 -5.9,-2.4 l -0.5,0.5 5.5,9.6 0.3,-0.1 c 6.7,-2.4 7.7,-3.8 10.4,-15.4 1.2,-5.1 0.8,-9.1 -1.3,-11.8 -2.5,-3.3 -6.3,-3.7 -6.5,-3.7 -0.1,0 -6.7,-0.3 -14.6,0.2 0.2,-0.8 2,-7.5 2.1,-7.9 2.5,0 4.7,0.1 5.7,0.5 l 0.4,0.1 0.4,-4.7 -0.4,0 c -1.1,0 -2.8,0.1 -5.1,0.3 1.3,-4.4 1.9,-5.8 2.1,-6.2 l 0.2,-0.3 -8.1,-4.7 -0.2,0.3 z m 4.4,25.3 c -0.1,0.7 -0.7,4.3 -0.7,4.7 0,0 -0.1,0 -0.1,0 0,-0.1 0.1,-0.4 0.1,-0.4 l -4.4,0.4 c 0,0 0,0.5 0,0.6 -0.4,0.1 -1,0.2 -1.4,0.2 0,-0.7 0,-5 0,-5.1 2.2,-0.1 4.3,-0.3 6.5,-0.4 z"
     id="path855"
     inkscape:connector-curvature="0"
     style="fill:#101040" />
  <path
     d="m 804.5,49.3 0.1,-6.4 4.4,-0.3 -0.3,-2.4 -4.1,1.2 0,-5.7 c 2.4,0.3 5,0.8 7.1,0.9 4.3,0.3 -1.2,14.1 -1.2,14.1 0,0 16.3,-14.4 2.6,-18.1 -1.4,0 -4.9,0.2 -8.4,0.4 l 0,-3.9 7.5,-1.9 -7.5,-0.1 0,-4 -4.6,-3.4 0.5,8.7 -4,2.7 4.1,-1 0.2,3.2 c -1.8,0.2 -3.4,0.3 -4.3,0.5 -11.5,2.2 1,17.2 1,17.2 0,0 -4,-14 0.5,-15.3 0.9,-0.3 1.8,-0.3 2.9,-0.3 l 0.4,7 -3,0.9 3,-0.2 0.2,4.1 c -9.2,12.1 -19.7,16.6 -19.7,16.6 0,0 10.2,-1.1 20,-11.9 l 1,18.7 c -3.7,-1.5 -7,-3.6 -7,-3.6 0,0 2.4,7.1 7.5,10.1 l 4.3,-5.1 c -1,-0.2 -2.1,-0.5 -3.2,-0.9 l 0.2,-18.9 c 2.7,3.2 9,10.5 11.7,11 l 9,-3 c -3.5,-0.6 -17.7,-8.9 -20.9,-10.9 z"
     id="path857"
     inkscape:connector-curvature="0"
     style="fill:#101040" />
  <path
     d="m 49.4,48.5 c 0,7.7 -6.2,13.9 -13.9,13.9 -7.7,0 -13.9,-6.2 -13.9,-13.9 0,-7.7 6.2,-13.9 13.9,-13.9 7.7,0 13.9,6.2 13.9,13.9 z"
     id="path867"
     inkscape:connector-curvature="0"
     style="fill:none;stroke:#10106c;stroke-width:0.75" />
  <circle
     cx="42"
     cy="40.5"
     r="6.5"
     id="circle869"
     sodipodi:cx="42"
     sodipodi:cy="40.5"
     sodipodi:rx="6.5"
     sodipodi:ry="6.5"
     style="fill:none;stroke:#10106c;stroke-width:1.60000002"
     transform="translate(0,8)" />
  <circle
     cx="29"
     cy="40.5"
     r="6.5"
     id="circle871"
     sodipodi:cx="29"
     sodipodi:cy="40.5"
     sodipodi:rx="6.5"
     sodipodi:ry="6.5"
     style="fill:none;stroke:#10106c;stroke-width:1.60000002"
     transform="translate(0,8)" />
  <circle
     cx="35.5"
     cy="34"
     r="6.5"
     id="circle873"
     sodipodi:cx="35.5"
     sodipodi:cy="34"
     sodipodi:rx="6.5"
     sodipodi:ry="6.5"
     style="fill:none;stroke:#10106c;stroke-width:1.60000002"
     transform="translate(0,8)" />
  <circle
     cx="35.5"
     cy="47"
     r="6.5"
     id="circle875"
     sodipodi:cx="35.5"
     sodipodi:cy="47"
     sodipodi:rx="6.5"
     sodipodi:ry="6.5"
     style="fill:none;stroke:#10106c;stroke-width:1.60000002"
     transform="translate(0,8)" />
  <path
     d="m 44.8,48.5 c 0,5.1 -4.2,9.3 -9.3,9.3 -5.1,0 -9.3,-4.2 -9.3,-9.3 0,-5.1 4.2,-9.3 9.3,-9.3 5.1,0 9.3,4.2 9.3,9.3 z"
     id="path877"
     inkscape:connector-curvature="0"
     style="fill:none;stroke:#10106c;stroke-width:0.75" />
  <path
     d="m 52.2,48.5 c 0,9.2 -7.5,16.7 -16.7,16.7 -9.2,0 -16.7,-7.5 -16.7,-16.7 0,-9.2 7.5,-16.7 16.7,-16.7 9.2,0 16.7,7.5 16.7,16.7 z"
     id="path879"
     inkscape:connector-curvature="0"
     style="fill:none;stroke:#ba0000;stroke-width:2" />
  <path
     d="M 55,48.5 C 55,59.3 46.3,68 35.5,68 24.7,68 16,59.3 16,48.5 16,37.7 24.7,29 35.5,29 46.3,29 55,37.7 55,48.5 z"
     id="path881"
     inkscape:connector-curvature="0"
     style="fill:none;stroke:#10106c;stroke-width:0.75" />
  <path
     d="m 861.8,18.2 c -0.4,0.4 -0.5,1 -0.5,1.7 0,1.3 0.4,2.9 0.6,3.5 0,0 0.3,7 0.4,7.8 -0.9,0.1 -2.5,0.2 -3.1,0.4 l -0.8,0 c -1.7,0.1 -3.3,0.2 -4,0.9 l -0.3,0.3 0.3,0.4 c 0.5,0.6 0.7,2.3 0.9,4.1 0.5,3.7 1.1,8.3 4.1,10.1 l 0.6,0.3 0,-0.7 c 0,0 0.1,-0.3 0.1,-0.7 0,-0.3 -0.1,-0.8 -0.2,-1.5 0.8,0.1 2.5,0.3 3.1,0.3 0.1,0.8 2.7,33.4 2.7,33.4 l 1,0 c 0,0 1.1,-32.2 1.1,-33.2 0.7,0 3.8,0.1 4.7,0.2 -0.2,0.6 -1,3.1 -1,3.1 l 1.4,-1.3 c 0.4,-0.3 9.1,-8.2 7.9,-13.4 -0.4,-1.7 -1.8,-2.9 -4.1,-3.5 l -0.1,0 h -0.1 c -1.3,0 -5.3,0.1 -8.3,0.3 0.1,-2.6 0.1,-4 0.1,-4.7 0,-0.6 0,-0.7 0,-0.8 0,0 0,-0.1 0,-0.1 0,-0.5 0.5,-1.2 0.9,-1.7 0.4,-0.6 0.9,-1.1 0.9,-1.7 0,-0.2 -0.1,-0.4 -0.2,-0.6 -0.6,-0.9 -5,-3.2 -6.9,-3.4 -0.6,0.1 -1,0.2 -1.2,0.5 z m 0.1,16.4 c 0,0 0.2,0 0.5,0 0,0.9 0.3,7.2 0.4,8.1 -0.8,-0.1 -2.7,-0.3 -3.3,-0.3 -0.3,-1.3 -0.4,-2.7 -0.5,-4.1 -0.1,-1.2 -0.2,-2.4 -0.4,-3.5 0.9,0 3.3,-0.2 3.3,-0.2 z m 6.1,3.1 c 0,0 0.1,-2.4 0.1,-3.2 1.3,0.2 3,0.3 4.6,0.3 0,0 1.2,0 1.8,0 0,0.4 -0.1,0.9 -0.1,0.9 -0.2,2.2 -0.5,4.8 -1.4,7.4 -0.6,0 -4.3,-0.2 -5.1,-0.3 0,-0.7 0.1,-5.1 0.1,-5.1 z"
     id="path899"
     inkscape:connector-curvature="0"
     style="fill:#ba0000" />
  <path
     d="m 925,55.8 c 0,0.1 -1.4,5.1 -5.1,7.1 -0.5,-0.6 -3.1,-4.2 -3.1,-4.2 l -0.9,0.5 4.4,11.4 1,-0.2 c 0,-2.2 1.1,-3.5 2.4,-4.9 1.8,-2.1 3.8,-4.5 2.3,-9.7 l -0.5,-1.7 -0.5,1.7 z"
     id="path903"
     inkscape:connector-curvature="0"
     style="fill:#004c00" />
  <path
     d="m 929.5,45 c 0,0 -0.5,4.9 -1.9,7.8 l -0.3,0.7 0.7,0.1 c 1.8,0.1 3.5,-3.7 4.1,-5.4 0.4,0 1.4,0.1 2,0.1 -0.3,1.2 -0.7,2.8 -0.7,3.8 0,0.4 0,0.7 0.2,0.9 l 0.5,0.3 c 0.8,0.1 5.2,-0.2 6.1,-0.3 l 0,-1 c -1.5,-0.2 -3.3,-0.7 -3.5,-1.2 -0.2,-0.6 0.6,-3 1.5,-5 l 0.3,-0.7 -9,-0.6 0,0.5 z"
     id="path905"
     inkscape:connector-curvature="0"
     style="fill:#004c00" />
  <path
     d="M 942,54.6 927.3,55 c 0,0 4.9,6.3 5.4,6.9 -2.6,2.4 -4.9,4.2 -7,5.4 l -0.6,0.4 0.6,0.5 c 1.4,1.1 4.2,-0.2 8.6,-4.2 2.3,3.2 3.8,5.5 4.3,6.9 l 0.2,0.7 2.7,-2.2 0,-0.2 0,-0.3 c 0,-0.5 0,-2.1 -4.7,-7.3 3,-3.1 5.6,-6 5.6,-6.1 l 0.7,-0.9 -1.1,0 z m -4.7,2.8 c -0.8,0.9 -1.7,1.8 -2.1,2.3 -0.4,-0.4 -1.2,-1.2 -1.9,-1.9 1.1,-0.2 2.7,-0.3 4,-0.4 z"
     id="path907"
     inkscape:connector-curvature="0"
     style="fill:#004c00" />
  <path
     d="m 931.1,33.2 -1.7,1.7 -4.5,-5.2 -0.2,0 c -0.7,0 -4.3,0.1 -5.2,1.4 -0.1,0.1 -0.1,0.3 -0.1,0.4 0,0.1 0,0.1 0,0.2 0.1,0.5 0.7,0.7 1.8,1.1 0.5,0.2 1.2,0.5 1.5,0.7 -1.1,2.3 -2.3,4.4 -3.7,6.4 -0.7,-0.4 -4.1,-2.5 -4.1,-2.5 l -0.6,0.8 c 0,0 2.8,3.1 3.3,3.6 -2.8,3.5 -6.2,6.6 -10.4,9.5 l 0.4,0.9 C 920.4,48.9 929.5,36 929.7,35.7 l 2.3,2.2 c -3.2,2 -6.2,3.8 -6.2,3.8 l 0.5,0.9 c 2,-0.8 4.8,-1.9 7.6,-3 l 11.1,10.8 10.8,-3.8 -0.1,-1 c -5.1,-0.2 -12,-4.4 -17.1,-7.9 2.9,-1 5.3,-1.7 6.4,-1.6 0.7,0 0.9,-0.3 1,-0.5 0.4,-1.1 -3.5,-4.4 -11.4,-9.7 l -0.5,-0.3 -0.2,0.6 m 1,8.8 c 0.7,-1.2 1.6,-2.9 1.9,-3.3 0.5,0.3 1.8,1.1 2.5,1.6 -0.4,0.2 -1.9,1.1 -3.7,2.3 -0.2,-0.2 -0.4,-0.4 -0.7,-0.6 z"
     id="path909"
     inkscape:connector-curvature="0"
     style="fill:#004c00" />
  <path
     d="m 926.9,43.4 -6.2,3.5 0.3,0.9 c 0,0 1.1,-0.1 1.8,-0.1 -0.2,0.7 -0.6,1.8 -1.1,3.2 -0.6,0 -5,-0.2 -5,-0.2 l 0.8,0.9 c 0.3,0.3 1.6,1.7 2.7,1.7 0,0 0.3,-0.1 0.6,-0.1 -0.8,2 -1.7,3.7 -2.6,5 l 0.7,0.7 c 1.5,-1.2 3.2,-3.4 4.8,-6.4 0.3,-0.1 1.2,-0.4 1.2,-0.4 l -0.1,-1 c 0,0 -0.2,0 -0.4,0 1.8,-3.6 3.1,-7.1 3.1,-7.1 l 0.5,-1.3 -1.1,0.7 z"
     id="path911"
     inkscape:connector-curvature="0"
     style="fill:#004c00" />
  <path
     d="m 2385.8,21.9 -0.1,1.3 c 0,0 8.9,-2.4 9.4,-0.6 0,0 -0.4,4.1 -1.4,4.9 0,-0.5 -0.7,-0.6 -1.7,-0.5 0.1,-1.1 0.3,-3.7 1,-4 l -1.6,-0.7 -0.2,4.8 c -0.5,0.1 -1,0.2 -1.5,0.3 l -0.9,-4.8 -1,0.4 0.9,4.7 c -1.1,0.3 -2,0.5 -2,0.5 l -1.8,-7 -2.2,-0.5 3.1,8.9 c 0,0 7.7,-2.7 7.5,-0.7 3.2,-2.5 4.3,-6.5 4.3,-6.5 -2.2,-3.4 -11.8,-0.5 -11.8,-0.5 z"
     id="path971"
     inkscape:connector-curvature="0"
     style="fill:#99b9ff;stroke:#678ed3" />
  <path
     d="m 2329.6,27.9 c -0.8,-2.5 4.7,2.6 2.6,2.2 -2.1,-0.4 -10.6,0.1 -11.9,0.6 l -0.6,-2.2 c 1.8,0.2 9.9,-0.6 9.9,-0.6 z"
     id="path973"
     inkscape:connector-curvature="0"
     style="fill:#99b9ff;stroke:#678ed3" />
  <path
     d="m 2201.6,24.1 c -0.8,-2.5 4.7,2.6 2.6,2.2 -2.1,-0.4 -10.6,0.1 -11.9,0.6 l -0.6,-2.2 c 1.8,0.2 9.9,-0.6 9.9,-0.6 z"
     id="path975"
     inkscape:connector-curvature="0"
     style="fill:#99b9ff;stroke:#678ed3" />
  <polygon
     points="2264.9,16.3 2265.7,17.8 2260.9,18.3 2260.4,16.8 "
     id="polygon977"
     style="fill:#99b9ff;stroke:#678ed3"
     transform="translate(62,8)" />
  <path
     d="m 2329.1,20.5 c -2,-2.3 -2.8,0.6 -9,0.6 l 1.1,1.7 7.7,-1 0.2,-1.3 z"
     id="path979"
     inkscape:connector-curvature="0"
     style="fill:#99b9ff;stroke:#678ed3" />
  <path
     d="m 2265.6,26.9 c -0.8,-2.5 4.7,2.6 2.6,2.2 -2.1,-0.4 -10.6,0.1 -11.9,0.6 l -0.6,-2.2 c 1.8,0.2 9.9,-0.6 9.9,-0.6 z"
     id="path981"
     inkscape:connector-curvature="0"
     style="fill:#99b9ff;stroke:#678ed3" />
  <path
     d="m 2265.1,22.5 c -2,-2.3 -2.8,0.6 -9,0.6 l 1.1,1.7 7.7,-1 0.2,-1.3 z"
     id="path983"
     inkscape:connector-curvature="0"
     style="fill:#99b9ff;stroke:#678ed3" />
  <path
     d="m 2639.1,28.3 -0.1,1.3 c 0,0 8.9,-2.4 9.4,-0.6 0,0 -0.4,4.1 -1.4,4.9 0,-0.5 -0.7,-0.6 -1.7,-0.5 0.1,-1.1 0.3,-3.7 1,-4 l -1.6,-0.7 -0.2,4.8 c -0.5,0.1 -1,0.2 -1.5,0.3 l -0.9,-4.8 -1,0.4 0.9,4.7 c -1.1,0.3 -2,0.5 -2,0.5 l -1.8,-7 -2.2,-0.6 3.1,8.9 c 0,0 7.7,-2.7 7.5,-0.7 3.2,-2.5 4.3,-6.5 4.3,-6.5 -2.2,-3.3 -11.8,-0.4 -11.8,-0.4 z"
     id="path999"
     inkscape:connector-curvature="0"
     style="fill:#dbc879;stroke:#7c5a2d;stroke-width:0.5" />
  <path
     d="m 2582.9,34.3 c -0.8,-2.5 4.7,2.6 2.6,2.2 -2.1,-0.4 -10.6,0.1 -11.9,0.6 l -0.6,-2.2 c 1.9,0.2 9.9,-0.6 9.9,-0.6 z"
     id="path1001"
     inkscape:connector-curvature="0"
     style="fill:#dbc879;stroke:#7c5a2d;stroke-width:0.5" />
  <path
     d="m 2454.9,30.5 c -0.8,-2.5 4.7,2.6 2.6,2.2 -2.1,-0.4 -10.6,0.1 -11.9,0.6 l -0.6,-2.2 c 1.9,0.2 9.9,-0.6 9.9,-0.6 z"
     id="path1003"
     inkscape:connector-curvature="0"
     style="fill:#dbc879;stroke:#7c5a2d;stroke-width:0.5" />
  <polygon
     points="2585,24.1 2580.3,24.7 2579.7,23.2 2584.3,22.6 "
     id="polygon1005"
     style="fill:#dbc879;stroke:#7c5a2d;stroke-width:0.5"
     transform="translate(-4,8)" />
  <path
     d="m 2582.5,26.8 c -2,-2.3 -2.8,0.6 -9,0.6 l 1.1,1.7 7.7,-1 0.2,-1.3 z"
     id="path1007"
     inkscape:connector-curvature="0"
     style="fill:#dbc879;stroke:#7c5a2d;stroke-width:0.5" />
  <path
     d="m 2518.9,33.3 c -0.8,-2.5 4.7,2.6 2.6,2.2 -2.1,-0.4 -10.6,0.1 -11.9,0.6 l -0.6,-2.2 c 1.9,0.2 9.9,-0.6 9.9,-0.6 z"
     id="path1009"
     inkscape:connector-curvature="0"
     style="fill:#dbc879;stroke:#7c5a2d;stroke-width:0.5" />
  <path
     d="m 2518.5,28.8 c -2,-2.3 -2.8,0.6 -9,0.6 l 1.1,1.7 7.7,-1 0.2,-1.3 z"
     id="path1011"
     inkscape:connector-curvature="0"
     style="fill:#dbc879;stroke:#7c5a2d;stroke-width:0.5" />
  <path
     d="m 632.3,62.7 c -2,-0.9 -11.8,3.3 -11.8,3.3 L 621,45.3 c 0,0 5.3,-4.3 9.6,-1.7 l -1.2,-5 c -1.4,-0.2 -8.4,5.5 -8.4,5.5 0,0 -0.6,-18.8 4.8,-19.9 0,0 -8.9,-2.6 -9.7,-2.2 -0.4,0.2 -0.4,13.8 -0.2,27.1 -3.2,3.1 -5.9,6.2 -7.1,7.3 l 0.4,-28.5 c 0,0 -4.7,-2.6 -5.8,-1.4 l 0.2,14.8 c -0.3,-0.5 -0.7,-0.9 -1,-1.3 -1,-1.3 -6.1,-4.2 -6.1,-4.2 0,0 1.7,5.6 2.5,6.6 0.7,0.9 3,2.9 4.6,2.2 l 0.2,16.5 c -3.4,3 -7.9,6.8 -8.5,5.4 -1.5,-3.2 -4.7,-3 -5.2,-1.5 -0.5,1.6 4.2,10.2 5.8,10.1 0.8,-0.1 4.4,-4.9 8,-10 l 0.1,5.3 c 1.6,2.1 3.8,0.5 4.6,-0.7 l 0.3,-11 c 1.1,-1.6 4,-4.5 7.1,-7.9 0.2,12.1 0.3,22.8 0.3,22.8 4.9,-5.2 16.7,-4 16.7,-4 l -0.7,-6.9 z"
     id="path1027"
     inkscape:connector-curvature="0"
     style="fill:#101040" />
  <path
     style="fill:#000000;fill-opacity:1;stroke:#000000;stroke-width:0.16838899;stroke-linecap:round;stroke-miterlimit:4;stroke-opacity:1;stroke-dasharray:none;stroke-dashoffset:0"
     d="m 971.3438,25.3125 0,1.4375 0.031,0 0,48.4375 -0.031,0 0,1.4375 0.031,0 0,0.1875 1.3438,0 0,-0.1875 35.3124,0 0,0.21875 1.3438,0 0,-50.09375 0,-1.40625 0,-0.0312 -36.6562,0 -1.3438,0 -0.031,0 z m 1.375,1.4375 35.3124,0 0,48.4375 -35.3124,0 0,-48.4375 z"
     id="rect4019"
     inkscape:connector-curvature="0" />
  <path
     style="fill:#000000;fill-opacity:1;stroke:#000000;stroke-width:0.1690048;stroke-linecap:round;stroke-miterlimit:4;stroke-opacity:1;stroke-dasharray:none;stroke-dashoffset:0"
     d="m 977.8907,30.64067 0,0.0625 0,1.40625 0,37.96875 0,1.40625 0,0.0312 24.9374,0 0,-1.4375 -0.031,0 0,-37.96874 0.031,0 0,-1.46875 -24.9374,0 z m 1.3437,1.46875 22.1875,0 0,37.96875 -22.1875,0 0,-37.96875 z"
     id="rect4027"
     inkscape:connector-curvature="0" />
  <rect
     y="25.887009"
     x="989.77777"
     height="5.5127034"
     width="1.1632321"
     id="rect4035"
     style="fill:#000000;fill-opacity:1;stroke:#000000;stroke-width:0.05755125;stroke-linecap:round;stroke-miterlimit:4;stroke-opacity:1;stroke-dasharray:none;stroke-dashoffset:0" />
  <rect
     style="fill:#000000;fill-opacity:1;stroke:#000000;stroke-width:0.05755125;stroke-linecap:round;stroke-miterlimit:4;stroke-opacity:1;stroke-dasharray:none;stroke-dashoffset:0"
     id="rect4037"
     width="1.1632321"
     height="5.5127034"
     x="50.496513"
     y="-1008.0166"
     transform="matrix(0,1,-1,0,0,0)" />
  <rect
     transform="matrix(0,1,-1,0,0,0)"
     y="-977.97919"
     x="50.496513"
     height="5.5127034"
     width="1.1632321"
     id="rect4039"
     style="fill:#000000;fill-opacity:1;stroke:#000000;stroke-width:0.05755125;stroke-linecap:round;stroke-miterlimit:4;stroke-opacity:1;stroke-dasharray:none;stroke-dashoffset:0" />
  <rect
     style="fill:#000000;fill-opacity:1;stroke:#000000;stroke-width:0.05755125;stroke-linecap:round;stroke-miterlimit:4;stroke-opacity:1;stroke-dasharray:none;stroke-dashoffset:0"
     id="rect4041"
     width="1.1632321"
     height="5.5127034"
     x="-990.94098"
     y="-76.187653"
     transform="scale(-1,-1)" />
</svg>
