<?xml version="1.0" encoding="UTF-8" standalone="no"?>
<!-- Created with Inkscape (http://www.inkscape.org/) -->
<svg
   xmlns:svg="http://www.w3.org/2000/svg"
   xmlns="http://www.w3.org/2000/svg"
   xmlns:xlink="http://www.w3.org/1999/xlink"
   xmlns:inkscape="http://www.inkscape.org/namespaces/inkscape"
   version="1.0"
   width="744.09448"
   height="1052.3622"
   id="svg2"
   style="display:inline;enable-background:new">
  <defs
     id="defs4">
    <linearGradient
       id="linearGradient3521">
      <stop
         id="stop3523"
         style="stop-color:#000000;stop-opacity:1"
         offset="0" />
      <stop
         id="stop3525"
         style="stop-color:#ffffff;stop-opacity:1"
         offset="1" />
    </linearGradient>
    <linearGradient
       id="linearGradient2507">
      <stop
         id="stop2509"
         style="stop-color:#d5fc59;stop-opacity:1"
         offset="0" />
      <stop
         id="stop2515"
         style="stop-color:#b7fa01;stop-opacity:1"
         offset="0.68965518" />
      <stop
         id="stop2511"
         style="stop-color:#a3df00;stop-opacity:1"
         offset="1" />
    </linearGradient>
    <linearGradient
       id="linearGradient2497">
      <stop
         id="stop2499"
         style="stop-color:#93e307;stop-opacity:1"
         offset="0" />
      <stop
         id="stop2505"
         style="stop-color:#a6f026;stop-opacity:1"
         offset="0.24137931" />
      <stop
         id="stop2501"
         style="stop-color:#b7f945;stop-opacity:1"
         offset="1" />
    </linearGradient>
    <linearGradient
       x1="367"
       y1="116.07765"
       x2="367"
       y2="194.87418"
       id="linearGradient2503"
       xlink:href="#linearGradient2497"
       gradientUnits="userSpaceOnUse"
       gradientTransform="translate(5e-5,0.4000204)" />
    <linearGradient
       x1="309"
       y1="194.86218"
       x2="309"
       y2="292.50018"
       id="linearGradient2513"
       xlink:href="#linearGradient2507"
       gradientUnits="userSpaceOnUse"
       gradientTransform="translate(5e-5,0)" />
    <filter
       id="filter6062">
      <feGaussianBlur
         id="feGaussianBlur6064"
         stdDeviation="0.51078329"
         inkscape:collect="always" />
    </filter>
    <filter
       height="1.3278747"
       y="-0.16393737"
       width="1.0373806"
       x="-0.018690282"
       id="filter6388">
      <feGaussianBlur
         id="feGaussianBlur6390"
         stdDeviation="2.1585318"
         inkscape:collect="always" />
    </filter>
    <filter
       id="filter6392">
      <feGaussianBlur
         id="feGaussianBlur6394"
         stdDeviation="1.2217821"
         inkscape:collect="always" />
    </filter>
    <linearGradient
       x1="367"
       y1="116.07765"
       x2="367"
       y2="194.87418"
       id="linearGradient6447"
       xlink:href="#linearGradient2497"
       gradientUnits="userSpaceOnUse"
       gradientTransform="matrix(1,0,0,-1,-5.16e-4,600.8176)" />
    <linearGradient
       x1="309"
       y1="194.86218"
       x2="309"
       y2="292.50018"
       id="linearGradient6449"
       xlink:href="#linearGradient2507"
       gradientUnits="userSpaceOnUse"
       gradientTransform="matrix(1,0,0,-1,-5.16e-4,600.8176)" />
    <linearGradient
       x1="381.96722"
       y1="416.2966"
       x2="381.14755"
       y2="294.26151"
       id="linearGradient3557"
       xlink:href="#linearGradient3521"
       gradientUnits="userSpaceOnUse"
       gradientTransform="translate(0,3.5999958)" />
    <mask
       id="mask3553">
      <rect
         width="508.0004"
         height="205.92934"
         x="100.4836"
         y="297.99335"
         id="rect3555"
         style="opacity:0.33000004;fill:url(#linearGradient3557);fill-opacity:1;fill-rule:evenodd;stroke:none" />
    </mask>
    <filter
       id="filter3571">
      <feGaussianBlur
         id="feGaussianBlur3573"
         stdDeviation="2.2929628"
         inkscape:collect="always" />
    </filter>
  </defs>
  <g
     id="layer3"
     style="display:inline">
    <path
       d="M 240.90119,115.28685 C 207.91877,115.22157 173.08766,125.74055 151.29473,151.46764 C 129.29143,176.70923 119.3283,212.3191 125.32087,245.4227 C 129.99258,269.32338 147.95749,290.43439 171.83869,296.53685 C 208.00325,307.22342 246.50557,301.84939 282.52619,293.28685 C 286.9362,266.44201 291.37142,239.60129 295.77619,212.7556 C 279.88036,212.7556 263.98452,212.7556 248.08869,212.7556 C 244.95781,231.70254 241.83966,250.65159 238.71369,269.59935 C 218.93969,272.77255 194.90727,269.71969 182.24494,252.41185 C 168.11617,231.06317 173.70142,202.62016 184.46455,181.09148 C 193.42473,163.16346 211.00618,148.94094 231.52619,147.34935 C 255.20697,144.06463 279.07113,149.92905 301.21369,157.78685 C 308.48371,155.41475 305.24148,145.94001 307.55744,140.3806 C 307.6536,134.49818 311.61464,128.12722 308.65119,122.28685 C 286.43057,117.17909 263.73251,114.91715 240.90119,115.28685 z M 345.36994,121.1931 C 339.05304,162.6816 330.58558,203.90174 325.85868,245.59845 C 324.67986,261.55534 330.27314,278.62727 343.80744,288.0056 C 365.75753,304.0433 395.10136,304.10261 420.93244,300.34935 C 446.70215,295.6265 472.29073,278.35084 479.17045,251.89557 C 487.14544,226.04911 488.68159,198.66056 494.03541,172.16456 C 496.91615,154.62173 499.81008,137.08105 502.68244,119.53685 C 488.50536,119.53685 474.32827,119.53685 460.15119,119.53685 C 452.84843,160.88715 447.42029,202.6175 438.90119,243.72435 C 435.73549,256.51608 425.73232,268.27336 412.20542,270.00002 C 399.74707,272.56761 382.59248,271.20148 376.08869,258.4431 C 369.97786,238.14549 378.71399,217.18254 380.56997,196.90719 C 384.81384,171.11676 389.07313,145.32885 393.30744,119.53685 C 377.42202,119.53685 361.53661,119.53685 345.65119,119.53685 L 345.48378,120.52274 L 345.36994,121.1931 z M 540.02619,121.1931 C 530.33277,180.16345 520.59592,239.12852 510.90119,298.09935 C 526.79702,298.09935 542.69286,298.09935 558.58869,298.09935 C 568.39535,238.57928 578.20319,179.05937 587.99494,119.53685 C 572.09911,119.53685 556.20327,119.53685 540.30744,119.53685 L 540.14003,120.52274 L 540.02619,121.1931 z"
       id="text4644"
       style="font-size:248.94935608px;font-style:normal;font-variant:normal;font-weight:bold;font-stretch:normal;text-align:start;line-height:125%;writing-mode:lr-tb;text-anchor:start;opacity:1;fill:#356289;fill-opacity:1;stroke:none;stroke-width:1px;stroke-linecap:butt;stroke-linejoin:miter;stroke-opacity:1;display:inline;filter:url(#filter6392);font-family:Lucida Sans;-inkscape-font-specification:Lucida Sans Semi-Bold" />
    <path
       d="M 357.3125,84.71875 C 357.00355,84.814187 356.80652,85.116295 356.84375,85.4375 L 357.75,95.625 C 357.78889,95.959489 358.06955,96.213422 358.40625,96.21875 L 361.1875,96.21875 C 361.5242,96.213422 361.80486,95.959489 361.84375,95.625 L 362.78125,85.4375 C 362.79427,85.253984 362.73141,85.073164 362.60736,84.937299 C 362.48331,84.801435 362.30894,84.72243 362.125,84.71875 L 357.5,84.71875 C 357.43781,84.709979 357.37469,84.709979 357.3125,84.71875 L 357.3125,84.71875 z M 123.6875,85.875 C 118.90754,85.875029 115.20654,87.274772 112.8125,90.1875 C 110.45238,93.045884 109.3125,96.744929 109.3125,101.125 C 109.3125,105.41606 110.42446,109.04657 112.6875,111.9375 C 115.00817,114.88503 118.69514,116.3125 123.5,116.3125 C 124.64473,116.3125 125.71204,116.26881 126.71875,116.125 C 127.7283,115.99389 128.6784,115.78363 129.59375,115.5 C 129.60451,115.48993 129.61493,115.47951 129.625,115.46875 C 130.57219,115.16617 131.61852,114.72552 132.78125,114.125 C 132.99594,114.00499 133.12783,113.77719 133.125,113.53125 L 133.125,110.1875 C 133.12221,109.95684 133.00119,109.74377 132.80451,109.62323 C 132.60784,109.50268 132.36305,109.49155 132.15625,109.59375 C 130.90876,110.26641 129.86038,110.73084 129.03125,111.03125 C 128.18704,111.32488 127.35883,111.56505 126.53125,111.71875 C 125.71134,111.86134 124.87093,111.9375 124.03125,111.9375 C 121.03178,111.9375 118.8479,110.94529 117.25,109 C 115.64922,107.02532 114.8125,104.45678 114.8125,101.15625 C 114.81249,97.981679 115.53349,95.373711 116.9375,93.25 C 118.31069,91.178787 120.45444,90.125025 123.625,90.125 C 124.52479,90.125024 125.47484,90.235417 126.5,90.40625 C 126.51042,90.406492 126.52083,90.406492 126.53125,90.40625 C 127.4989,90.565652 129.40266,91.105248 132.1875,92.0625 C 132.38916,92.126745 132.6093,92.092141 132.78152,91.969127 C 132.95374,91.846112 133.05787,91.649091 133.0625,91.4375 L 133.0625,87.75 C 133.06576,87.442568 132.85977,87.172208 132.5625,87.09375 C 129.18836,86.272365 126.23563,85.875031 123.6875,85.875 z M 374.53125,85.875 C 372.67609,85.875029 371.11161,86.187615 369.8125,86.90625 C 368.5509,87.611683 367.50762,88.630377 366.75,89.875 C 366.0054,91.120525 365.625,92.476692 365.625,93.90625 C 365.625,95.502501 366.11044,97.006837 367.0625,98.3125 C 368.04784,99.663838 369.81803,100.99703 372.40625,102.46875 L 374.3125,103.5625 C 376.2089,104.63918 377.36433,105.60194 377.71875,106.15625 C 378.13368,106.83327 378.34373,107.51971 378.34375,108.3125 C 378.34374,109.35868 377.96758,110.17002 377.15625,110.9375 C 376.3875,111.66412 375.34417,112.0625 373.875,112.0625 C 373.05127,112.0625 372.14187,111.95435 371.15625,111.75 C 370.24184,111.56043 368.64075,110.95248 366.4375,109.9375 C 366.22861,109.84728 365.98823,109.86901 365.7989,109.99523 C 365.60957,110.12145 365.49706,110.33497 365.5,110.5625 L 365.5,114.4375 C 365.49282,114.73618 365.68388,115.00367 365.96875,115.09375 C 367.91555,115.6464 369.34137,115.98955 370.34375,116.125 C 371.31221,116.26896 372.30247,116.3125 373.3125,116.3125 C 376.62223,116.3125 379.23697,115.48947 381.03125,113.75 C 382.79141,112.0565 383.68747,109.98796 383.6875,107.65625 C 383.68748,105.95088 383.25523,104.40149 382.3125,103.0625 C 381.33979,101.69511 379.552,100.32871 376.9375,98.84375 L 374.9375,97.71875 C 373.87985,97.116156 373.02665,96.60836 372.4375,96.1875 C 371.88955,95.784943 371.46924,95.310125 371.15625,94.78125 C 370.84005,94.236112 370.71873,93.786495 370.71875,93.3125 C 370.71874,92.639124 371.03674,91.905357 371.71875,91.15625 C 372.33603,90.489202 373.29688,90.125024 374.78125,90.125 C 375.48127,90.125023 376.18041,90.239692 376.90625,90.40625 C 376.91667,90.406492 376.92708,90.406492 376.9375,90.40625 C 377.62232,90.549867 379.01667,91.0066 381.0625,91.8125 C 381.26798,91.889244 381.49799,91.860773 381.67855,91.736246 C 381.85912,91.611718 381.96747,91.406838 381.96875,91.1875 L 381.96875,87.59375 C 381.97593,87.295067 381.78487,87.027581 381.5,86.9375 C 379.07055,86.208697 376.74176,85.875031 374.53125,85.875 z M 137.96875,86.5625 C 137.68388,86.652581 137.49282,86.920067 137.5,87.21875 L 137.5,114.96875 C 137.508,115.32782 137.79718,115.617 138.15625,115.625 L 142.0625,115.625 C 142.42157,115.617 142.71075,115.32782 142.71875,114.96875 L 142.71875,103.90625 L 145.34375,103.90625 L 153.0625,115.34375 C 153.19178,115.52495 153.40247,115.6303 153.625,115.625 L 158.46875,115.625 C 158.60346,115.62191 158.73413,115.57836 158.84375,115.5 C 158.85417,115.50024 158.86458,115.50024 158.875,115.5 C 158.98462,115.57836 159.11529,115.62191 159.25,115.625 L 162.90625,115.625 C 163.17753,115.6283 163.42414,115.46801 163.53125,115.21875 L 166.4375,107.9375 L 177.25,107.9375 L 180.125,115.21875 C 180.23211,115.46801 180.47872,115.6283 180.75,115.625 L 185,115.625 C 185.21934,115.62372 185.42422,115.51537 185.54875,115.3348 C 185.67327,115.15424 185.70174,114.92423 185.625,114.71875 L 174.78125,86.96875 C 174.67414,86.71949 174.42753,86.559196 174.15625,86.5625 L 170.28125,86.5625 C 170.00997,86.559196 169.76336,86.71949 169.65625,86.96875 L 158.78125,114.3125 L 150.15625,102.21875 C 151.21086,101.71643 152.14324,101.16062 152.84375,100.4375 C 153.67937,99.574929 154.3377,98.57086 154.78125,97.46875 C 155.23977,96.362878 155.43748,95.228898 155.4375,94.09375 C 155.43748,92.146337 154.7806,90.371327 153.5,88.875 C 152.12628,87.255518 149.77435,86.562529 146.5625,86.5625 L 138.15625,86.5625 C 138.09406,86.553729 138.03094,86.553729 137.96875,86.5625 L 137.96875,86.5625 z M 188,86.5625 C 187.71513,86.652581 187.52407,86.920067 187.53125,87.21875 L 187.53125,90.15625 C 187.53925,90.515323 187.82843,90.804504 188.1875,90.8125 L 200.90625,90.8125 L 186.71875,111.4375 C 186.65141,111.55061 186.61881,111.68101 186.625,111.8125 L 186.625,114.96875 C 186.633,115.32782 186.92218,115.617 187.28125,115.625 L 206.90625,115.625 C 207.26532,115.617 207.5545,115.32782 207.5625,114.96875 L 207.5625,111.8125 C 207.5545,111.45343 207.26532,111.16425 206.90625,111.15625 L 193.28125,111.15625 L 207.46875,90.53125 C 207.53609,90.418144 207.56869,90.287738 207.5625,90.15625 L 207.5625,87.21875 C 207.5545,86.859677 207.26532,86.570496 206.90625,86.5625 L 188.1875,86.5625 C 188.12531,86.553729 188.06219,86.553729 188,86.5625 L 188,86.5625 z M 208.875,86.5625 C 208.66883,86.615396 208.49996,86.762921 208.41985,86.960115 C 208.33974,87.157309 208.35788,87.380809 208.46875,87.5625 L 217.65625,103.625 L 217.65625,114.96875 C 217.66425,115.32782 217.95343,115.617 218.3125,115.625 L 222.25,115.625 C 222.60907,115.617 222.89825,115.32782 222.90625,114.96875 L 222.90625,103.5 L 232.75,87.5625 C 232.86489,87.358147 232.86487,87.108664 232.74993,86.904336 C 232.635,86.700007 232.4218,86.570431 232.1875,86.5625 L 228.53125,86.5625 C 228.30279,86.564172 228.09086,86.68191 227.96875,86.875 L 220.78125,98.4375 L 214.15625,86.875 C 214.02831,86.672311 213.80201,86.553207 213.5625,86.5625 L 209.0625,86.5625 C 209.00031,86.553729 208.93719,86.553729 208.875,86.5625 L 208.875,86.5625 z M 248.28125,86.5625 C 247.99638,86.652581 247.80532,86.920067 247.8125,87.21875 L 247.8125,114.96875 C 247.8205,115.32782 248.10968,115.617 248.46875,115.625 L 264.78125,115.625 C 265.14032,115.617 265.4295,115.32782 265.4375,114.96875 L 265.4375,112.03125 C 265.4295,111.67218 265.14032,111.383 264.78125,111.375 L 253.0625,111.375 L 253.0625,102.625 L 262.09375,102.625 C 262.45282,102.617 262.742,102.32782 262.75,101.96875 L 262.75,99.0625 C 262.742,98.703427 262.45282,98.414246 262.09375,98.40625 L 253.0625,98.40625 L 253.0625,90.8125 L 263.96875,90.8125 C 264.32782,90.804504 264.617,90.515323 264.625,90.15625 L 264.625,87.21875 C 264.617,86.859677 264.32782,86.570496 263.96875,86.5625 L 248.46875,86.5625 C 248.40656,86.553729 248.34344,86.553729 248.28125,86.5625 L 248.28125,86.5625 z M 269.1875,86.5625 C 268.90263,86.652581 268.71157,86.920067 268.71875,87.21875 L 268.71875,114.96875 C 268.72675,115.32782 269.01593,115.617 269.375,115.625 L 278.65625,115.625 C 282.21773,115.625 285.08433,114.96031 287.1875,113.53125 C 289.23793,112.13799 290.78477,110.27639 291.78125,107.96875 C 292.78333,105.67823 293.24997,103.15529 293.25,100.4375 C 293.24997,97.568085 292.73652,95.090773 291.625,93 C 290.53481,90.911627 288.98482,89.277284 287.03125,88.1875 C 285.03375,87.059704 282.25297,86.562529 278.625,86.5625 L 269.375,86.5625 C 269.31281,86.553729 269.24969,86.553729 269.1875,86.5625 L 269.1875,86.5625 z M 298,86.5625 C 297.71513,86.652581 297.52407,86.920067 297.53125,87.21875 L 297.53125,114.96875 C 297.53925,115.32782 297.82843,115.617 298.1875,115.625 L 307.46875,115.625 C 311.03023,115.625 313.86835,114.95844 315.96875,113.53125 C 318.01918,112.13799 319.566,110.27638 320.5625,107.96875 C 321.56244,105.68312 322.06248,103.16059 322.0625,100.4375 C 322.06247,97.563064 321.51516,95.085893 320.40625,93 C 319.31606,90.911624 317.76605,89.277283 315.8125,88.1875 C 313.81501,87.059704 311.03423,86.562529 307.40625,86.5625 L 298.1875,86.5625 C 298.12531,86.553729 298.06219,86.553729 298,86.5625 L 298,86.5625 z M 326.78125,86.5625 C 326.49638,86.652581 326.30532,86.920067 326.3125,87.21875 L 326.3125,114.96875 C 326.3205,115.32782 326.60968,115.617 326.96875,115.625 L 330.90625,115.625 C 331.26532,115.617 331.5545,115.32782 331.5625,114.96875 L 331.5625,87.21875 C 331.5545,86.859677 331.26532,86.570496 330.90625,86.5625 L 326.96875,86.5625 C 326.90656,86.553729 326.84344,86.553729 326.78125,86.5625 L 326.78125,86.5625 z M 337.875,86.5625 C 337.59013,86.652581 337.39907,86.920067 337.40625,87.21875 L 337.40625,114.96875 C 337.41425,115.32782 337.70343,115.617 338.0625,115.625 L 354.375,115.625 C 354.73407,115.617 355.02325,115.32782 355.03125,114.96875 L 355.03125,112.03125 C 355.02325,111.67218 354.73407,111.383 354.375,111.375 L 342.65625,111.375 L 342.65625,102.625 L 351.71875,102.625 C 352.07782,102.617 352.367,102.32782 352.375,101.96875 L 352.375,99.0625 C 352.367,98.703427 352.07782,98.414246 351.71875,98.40625 L 342.65625,98.40625 L 342.65625,90.8125 L 353.59375,90.8125 C 353.95282,90.804504 354.242,90.515323 354.25,90.15625 L 354.25,87.21875 C 354.242,86.859677 353.95282,86.570496 353.59375,86.5625 L 338.0625,86.5625 C 338.00031,86.553729 337.93719,86.553729 337.875,86.5625 L 337.875,86.5625 z M 142.71875,90.8125 L 144.53125,90.8125 C 146.25556,90.812524 147.45239,91.053156 148.09375,91.34375 C 148.81272,91.664546 149.26824,92.052486 149.5625,92.5625 C 149.57292,92.562742 149.58333,92.562742 149.59375,92.5625 C 149.9147,93.090553 150.09373,93.713444 150.09375,94.46875 C 150.09373,95.762268 149.65679,96.921628 148.71875,98.03125 C 147.90841,99.001653 146.16361,99.625019 143.34375,99.625 L 142.71875,99.625 L 142.71875,90.8125 z M 273.96875,90.8125 L 276.5625,90.8125 C 280.29111,90.812525 282.80216,91.367954 284,92.1875 C 285.31691,93.077021 286.252,94.253252 286.84375,95.75 C 287.44798,97.266577 287.78121,98.938818 287.78125,100.8125 C 287.78123,102.9463 287.38937,104.88065 286.6875,106.59375 C 285.98883,108.29894 285.05367,109.46664 283.875,110.21875 C 282.74359,110.93676 280.92715,111.375 278.375,111.375 L 273.96875,111.375 L 273.96875,90.8125 z M 302.78125,90.8125 L 305.375,90.8125 C 309.10361,90.812525 311.61464,91.367947 312.8125,92.1875 C 314.1294,93.077019 315.06448,94.253243 315.65625,95.75 C 316.25769,97.259573 316.56248,98.931654 316.5625,100.8125 C 316.56248,102.95263 316.19937,104.88681 315.5,106.59375 C 314.80133,108.29895 313.86617,109.46664 312.6875,110.21875 C 311.5602,110.93415 309.70839,111.375 307.15625,111.375 L 302.78125,111.375 L 302.78125,90.8125 z M 171.875,94.25 L 175.625,103.71875 L 168.125,103.71875 L 171.875,94.25 z"
       transform="matrix(1.0725069,0,-0.1427457,1.0542957,-1.6964755,-11.362448)"
       id="path6046"
       style="font-size:38.39479446px;font-style:normal;font-variant:normal;font-weight:normal;font-stretch:normal;opacity:0.33000004;fill:#3f74a2;fill-opacity:1;stroke:none;stroke-width:1px;stroke-linecap:butt;stroke-linejoin:miter;stroke-opacity:1;display:inline;filter:url(#filter6388);font-family:Lucida Sans;-inkscape-font-specification:Lucida Sans" />
    <path
       d="M 434,372.09375 C 431.97713,372.09378 430.29099,372.50129 428.9375,373.25 C 427.60441,373.99541 426.522,374.99293 425.71875,376.3125 C 424.92918,377.63325 424.53123,379.08642 424.53125,380.59375 C 424.53125,382.27397 425.02615,383.8091 426.03125,385.1875 C 427.04396,386.5764 429.0204,388.04653 431.90625,389.6875 L 434.0625,390.9375 C 436.23973,392.17362 437.57499,393.25116 438.09375,394.0625 C 438.61626,394.91505 438.87499,395.81065 438.875,396.8125 C 438.87498,398.14146 438.39271,399.25604 437.375,400.21875 C 436.37716,401.1619 435.01263,401.65625 433.25,401.65625 C 432.2736,401.65625 431.20904,401.55021 430.0625,401.3125 C 428.93257,401.07825 427.09965,400.4044 424.59375,399.25 C 424.58488,399.23814 424.57436,399.22762 424.5625,399.21875 C 424.55211,399.21769 424.54164,399.21769 424.53125,399.21875 C 424.52086,399.21769 424.51039,399.21769 424.5,399.21875 C 424.47706,399.22426 424.45568,399.23495 424.4375,399.25 C 424.42564,399.25887 424.41512,399.26939 424.40625,399.28125 C 424.3912,399.29943 424.38051,399.32081 424.375,399.34375 C 424.37394,399.35414 424.37394,399.36461 424.375,399.375 L 424.375,403.75 C 424.37394,403.76039 424.37394,403.77086 424.375,403.78125 C 424.38051,403.80419 424.3912,403.82557 424.40625,403.84375 C 424.41512,403.85561 424.42564,403.86613 424.4375,403.875 C 424.45568,403.89005 424.47706,403.90074 424.5,403.90625 C 426.68872,404.52757 428.2831,404.91916 429.34375,405.0625 C 430.39639,405.21898 431.47368,405.28125 432.59375,405.28125 C 436.22895,405.28125 438.99065,404.42056 440.875,402.59375 C 442.76212,400.7781 443.74998,398.57384 443.75,396.09375 C 443.74998,394.27409 443.24076,392.65721 442.25,391.25 C 441.25197,389.847 439.28999,388.34314 436.375,386.6875 L 434.125,385.4375 C 432.91549,384.74839 431.99754,384.14561 431.3125,383.65625 C 430.63743,383.1603 430.08562,382.54773 429.6875,381.875 C 429.28829,381.18675 429.09375,380.55036 429.09375,379.90625 C 429.09374,378.96298 429.50212,378.01818 430.34375,377.09375 C 431.18125,376.18872 432.47107,375.75002 434.25,375.75 C 435.10026,375.75003 435.96509,375.8368 436.8125,376.03125 C 437.66205,376.20941 439.23776,376.77172 441.5625,377.6875 C 441.57289,377.68856 441.58336,377.68856 441.59375,377.6875 C 441.60414,377.68856 441.61461,377.68856 441.625,377.6875 C 441.63539,377.68856 441.64586,377.68856 441.65625,377.6875 C 441.66664,377.68856 441.67711,377.68856 441.6875,377.6875 C 441.69936,377.67863 441.70988,377.66811 441.71875,377.65625 C 441.73061,377.64738 441.74113,377.63686 441.75,377.625 C 441.76505,377.60682 441.77574,377.58544 441.78125,377.5625 C 441.78231,377.55211 441.78231,377.54164 441.78125,377.53125 L 441.78125,373.46875 C 441.78231,373.45836 441.78231,373.44789 441.78125,373.4375 C 441.77574,373.41456 441.76505,373.39318 441.75,373.375 C 441.74113,373.36314 441.73061,373.35262 441.71875,373.34375 C 441.70057,373.3287 441.67919,373.31801 441.65625,373.3125 C 438.96489,372.50513 436.42943,372.09377 434,372.09375 z M 484.53125,372.09375 C 482.50838,372.09378 480.82224,372.50129 479.46875,373.25 C 478.13566,373.99541 477.05325,374.99293 476.25,376.3125 C 475.46043,377.63325 475.06248,379.08642 475.0625,380.59375 C 475.0625,382.27397 475.5574,383.8091 476.5625,385.1875 C 477.57521,386.5764 479.55165,388.04653 482.4375,389.6875 L 484.59375,390.9375 C 486.77098,392.17362 488.10624,393.25116 488.625,394.0625 C 489.14751,394.91505 489.40624,395.81065 489.40625,396.8125 C 489.40623,398.14146 488.92396,399.25604 487.90625,400.21875 C 486.90955,401.16083 485.51263,401.65625 483.75,401.65625 C 482.7736,401.65625 481.70904,401.55021 480.5625,401.3125 C 479.43257,401.07825 477.59965,400.4044 475.09375,399.25 C 475.08488,399.23814 475.07436,399.22762 475.0625,399.21875 C 475.05211,399.21769 475.04164,399.21769 475.03125,399.21875 C 475.02086,399.21769 475.01039,399.21769 475,399.21875 C 474.97706,399.22426 474.95568,399.23495 474.9375,399.25 C 474.92564,399.25887 474.91512,399.26939 474.90625,399.28125 C 474.8912,399.29943 474.88051,399.32081 474.875,399.34375 C 474.87394,399.35414 474.87394,399.36461 474.875,399.375 L 474.875,403.75 C 474.87394,403.76039 474.87394,403.77086 474.875,403.78125 C 474.88051,403.80419 474.8912,403.82557 474.90625,403.84375 C 474.91512,403.85561 474.92564,403.86613 474.9375,403.875 C 474.95568,403.89005 474.97706,403.90074 475,403.90625 C 477.18872,404.52757 478.7831,404.91916 479.84375,405.0625 C 480.89684,405.21904 482.00493,405.28125 483.125,405.28125 C 486.7602,405.28125 489.5219,404.42056 491.40625,402.59375 C 493.29399,400.7775 494.24998,398.57252 494.25,396.09375 C 494.24998,394.27589 493.77291,392.65849 492.78125,391.25 C 491.78231,389.84573 489.78958,388.34291 486.875,386.6875 L 484.65625,385.4375 C 483.44574,384.74783 482.49575,384.14433 481.8125,383.65625 C 481.13743,383.1603 480.58562,382.54773 480.1875,381.875 C 479.79001,381.18971 479.625,380.55512 479.625,379.90625 C 479.62499,378.96298 480.03337,378.01818 480.875,377.09375 C 481.7125,376.18872 483.00232,375.75002 484.78125,375.75 C 485.63151,375.75003 486.46429,375.83661 487.3125,376.03125 C 488.16277,376.20956 489.76945,376.77189 492.09375,377.6875 C 492.10414,377.68856 492.11461,377.68856 492.125,377.6875 C 492.13539,377.68856 492.14586,377.68856 492.15625,377.6875 C 492.16664,377.68856 492.17711,377.68856 492.1875,377.6875 C 492.19789,377.68856 492.20836,377.68856 492.21875,377.6875 C 492.23061,377.67863 492.24113,377.66811 492.25,377.65625 C 492.26186,377.64738 492.27238,377.63686 492.28125,377.625 C 492.2963,377.60682 492.30699,377.58544 492.3125,377.5625 C 492.31356,377.55211 492.31356,377.54164 492.3125,377.53125 L 492.3125,373.46875 C 492.31356,373.45836 492.31356,373.44789 492.3125,373.4375 C 492.30699,373.41456 492.2963,373.39318 492.28125,373.375 C 492.27238,373.36314 492.26186,373.35262 492.25,373.34375 C 492.23182,373.3287 492.21044,373.31801 492.1875,373.3125 C 489.49614,372.50513 486.96068,372.09377 484.53125,372.09375 z M 446.15625,372.90625 C 446.14439,372.91512 446.13387,372.92564 446.125,372.9375 C 446.11314,372.94637 446.10262,372.95689 446.09375,372.96875 C 446.0787,372.98693 446.06801,373.00831 446.0625,373.03125 C 446.06144,373.04164 446.06144,373.05211 446.0625,373.0625 C 446.06144,373.07289 446.06144,373.08336 446.0625,373.09375 C 446.07137,373.10561 446.08189,373.11613 446.09375,373.125 L 456.5,391.28125 L 456.5,404.34375 C 456.49894,404.35414 456.49894,404.36461 456.5,404.375 C 456.50551,404.39794 456.5162,404.41932 456.53125,404.4375 C 456.54012,404.44936 456.55064,404.45988 456.5625,404.46875 C 456.58068,404.4838 456.60206,404.49449 456.625,404.5 C 456.63539,404.50106 456.64586,404.50106 456.65625,404.5 L 461.09375,404.5 C 461.10414,404.50106 461.11461,404.50106 461.125,404.5 C 461.14794,404.49449 461.16932,404.4838 461.1875,404.46875 C 461.19936,404.45988 461.20988,404.44936 461.21875,404.4375 C 461.2338,404.41932 461.24449,404.39794 461.25,404.375 C 461.25106,404.36461 461.25106,404.35414 461.25,404.34375 L 461.25,391.21875 L 472.40625,373.15625 C 472.4213,373.13807 472.43199,373.11669 472.4375,373.09375 C 472.43856,373.08336 472.43856,373.07289 472.4375,373.0625 C 472.43856,373.05211 472.43856,373.04164 472.4375,373.03125 C 472.43199,373.00831 472.4213,372.98693 472.40625,372.96875 C 472.39738,372.95689 472.38686,372.94637 472.375,372.9375 C 472.36613,372.92564 472.35561,372.91512 472.34375,372.90625 C 472.33336,372.90519 472.32289,372.90519 472.3125,372.90625 C 472.30211,372.90519 472.29164,372.90519 472.28125,372.90625 L 468.15625,372.90625 C 468.14586,372.90519 468.13539,372.90519 468.125,372.90625 C 468.10206,372.91176 468.08068,372.92245 468.0625,372.9375 C 468.05064,372.94637 468.04012,372.95689 468.03125,372.96875 L 459.40625,386.90625 L 451.40625,373 C 451.40731,372.98961 451.40731,372.97914 451.40625,372.96875 C 451.39738,372.95689 451.38686,372.94637 451.375,372.9375 C 451.35682,372.92245 451.33544,372.91176 451.3125,372.90625 C 451.30211,372.90519 451.29164,372.90519 451.28125,372.90625 L 446.21875,372.90625 C 446.20836,372.90519 446.19789,372.90519 446.1875,372.90625 C 446.17711,372.90519 446.16664,372.90519 446.15625,372.90625 L 446.15625,372.90625 z M 496.6875,372.90625 C 496.67564,372.91512 496.66512,372.92564 496.65625,372.9375 C 496.64439,372.94637 496.63387,372.95689 496.625,372.96875 C 496.60995,372.98693 496.59926,373.00831 496.59375,373.03125 C 496.59269,373.04164 496.59269,373.05211 496.59375,373.0625 L 496.59375,376.375 C 496.59269,376.38539 496.59269,376.39586 496.59375,376.40625 C 496.59926,376.42919 496.60995,376.45057 496.625,376.46875 C 496.63387,376.48061 496.64439,376.49113 496.65625,376.5 C 496.67443,376.51505 496.69581,376.52574 496.71875,376.53125 C 496.72914,376.53231 496.73961,376.53231 496.75,376.53125 L 507.6875,376.53125 L 507.6875,404.34375 C 507.68644,404.35414 507.68644,404.36461 507.6875,404.375 C 507.69301,404.39794 507.7037,404.41932 507.71875,404.4375 C 507.72762,404.44936 507.73814,404.45988 507.75,404.46875 C 507.76818,404.4838 507.78956,404.49449 507.8125,404.5 C 507.82289,404.50106 507.83336,404.50106 507.84375,404.5 L 512.28125,404.5 C 512.29164,404.50106 512.30211,404.50106 512.3125,404.5 C 512.33544,404.49449 512.35682,404.4838 512.375,404.46875 C 512.38686,404.45988 512.39738,404.44936 512.40625,404.4375 C 512.4213,404.41932 512.43199,404.39794 512.4375,404.375 C 512.43856,404.36461 512.43856,404.35414 512.4375,404.34375 L 512.4375,376.53125 L 523.40625,376.53125 C 523.41664,376.53231 523.42711,376.53231 523.4375,376.53125 C 523.46044,376.52574 523.48182,376.51505 523.5,376.5 C 523.51186,376.49113 523.52238,376.48061 523.53125,376.46875 C 523.5463,376.45057 523.55699,376.42919 523.5625,376.40625 C 523.56356,376.39586 523.56356,376.38539 523.5625,376.375 L 523.5625,373.0625 C 523.56356,373.05211 523.56356,373.04164 523.5625,373.03125 C 523.55699,373.00831 523.5463,372.98693 523.53125,372.96875 C 523.52238,372.95689 523.51186,372.94637 523.5,372.9375 C 523.48182,372.92245 523.46044,372.91176 523.4375,372.90625 C 523.42711,372.90519 523.41664,372.90519 523.40625,372.90625 L 496.75,372.90625 C 496.73961,372.90519 496.72914,372.90519 496.71875,372.90625 C 496.70836,372.90519 496.69789,372.90519 496.6875,372.90625 L 496.6875,372.90625 z M 527.6875,372.90625 C 527.67564,372.91512 527.66512,372.92564 527.65625,372.9375 C 527.64439,372.94637 527.63387,372.95689 527.625,372.96875 C 527.60995,372.98693 527.59926,373.00831 527.59375,373.03125 C 527.59269,373.04164 527.59269,373.05211 527.59375,373.0625 L 527.59375,404.34375 C 527.59269,404.35414 527.59269,404.36461 527.59375,404.375 C 527.59926,404.39794 527.60995,404.41932 527.625,404.4375 C 527.63387,404.44936 527.64439,404.45988 527.65625,404.46875 C 527.67443,404.4838 527.69581,404.49449 527.71875,404.5 C 527.72914,404.50106 527.73961,404.50106 527.75,404.5 L 546.15625,404.5 C 546.16664,404.50106 546.17711,404.50106 546.1875,404.5 C 546.21044,404.49449 546.23182,404.4838 546.25,404.46875 C 546.26186,404.45988 546.27238,404.44936 546.28125,404.4375 C 546.2963,404.41932 546.30699,404.39794 546.3125,404.375 C 546.31356,404.36461 546.31356,404.35414 546.3125,404.34375 L 546.3125,401.03125 C 546.31356,401.02086 546.31356,401.01039 546.3125,401 C 546.30699,400.97706 546.2963,400.95568 546.28125,400.9375 C 546.27238,400.92564 546.26186,400.91512 546.25,400.90625 C 546.23182,400.8912 546.21044,400.88051 546.1875,400.875 C 546.17711,400.87394 546.16664,400.87394 546.15625,400.875 L 532.34375,400.875 L 532.34375,389.84375 L 543.125,389.84375 C 543.13539,389.84481 543.14586,389.84481 543.15625,389.84375 C 543.17919,389.83824 543.20057,389.82755 543.21875,389.8125 C 543.23061,389.80363 543.24113,389.79311 543.25,389.78125 C 543.26505,389.76307 543.27574,389.74169 543.28125,389.71875 C 543.28231,389.70836 543.28231,389.69789 543.28125,389.6875 L 543.28125,386.40625 C 543.28231,386.39586 543.28231,386.38539 543.28125,386.375 C 543.27574,386.35206 543.26505,386.33068 543.25,386.3125 C 543.24113,386.30064 543.23061,386.29012 543.21875,386.28125 C 543.20057,386.2662 543.17919,386.25551 543.15625,386.25 C 543.14586,386.24894 543.13539,386.24894 543.125,386.25 L 532.34375,386.25 L 532.34375,376.53125 L 545.21875,376.53125 C 545.22914,376.53231 545.23961,376.53231 545.25,376.53125 C 545.27294,376.52574 545.29432,376.51505 545.3125,376.5 C 545.32436,376.49113 545.33488,376.48061 545.34375,376.46875 C 545.3588,376.45057 545.36949,376.42919 545.375,376.40625 C 545.37606,376.39586 545.37606,376.38539 545.375,376.375 L 545.375,373.0625 C 545.37606,373.05211 545.37606,373.04164 545.375,373.03125 C 545.36949,373.00831 545.3588,372.98693 545.34375,372.96875 C 545.33488,372.95689 545.32436,372.94637 545.3125,372.9375 C 545.29432,372.92245 545.27294,372.91176 545.25,372.90625 C 545.23961,372.90519 545.22914,372.90519 545.21875,372.90625 L 527.75,372.90625 C 527.73961,372.90519 527.72914,372.90519 527.71875,372.90625 C 527.70836,372.90519 527.69789,372.90519 527.6875,372.90625 z M 551.28125,372.90625 C 551.26939,372.91512 551.25887,372.92564 551.25,372.9375 C 551.23814,372.94637 551.22762,372.95689 551.21875,372.96875 C 551.2037,372.98693 551.19301,373.00831 551.1875,373.03125 C 551.18644,373.04164 551.18644,373.05211 551.1875,373.0625 L 551.1875,404.34375 C 551.18644,404.35414 551.18644,404.36461 551.1875,404.375 C 551.19301,404.39794 551.2037,404.41932 551.21875,404.4375 C 551.22762,404.44936 551.23814,404.45988 551.25,404.46875 C 551.26818,404.4838 551.28956,404.49449 551.3125,404.5 C 551.32289,404.50106 551.33336,404.50106 551.34375,404.5 L 555.15625,404.5 C 555.16664,404.50106 555.17711,404.50106 555.1875,404.5 C 555.21044,404.49449 555.23182,404.4838 555.25,404.46875 C 555.26186,404.45988 555.27238,404.44936 555.28125,404.4375 C 555.2963,404.41932 555.30699,404.39794 555.3125,404.375 C 555.31356,404.36461 555.31356,404.35414 555.3125,404.34375 L 555.3125,379.75 L 563.375,402.3125 C 563.38387,402.32436 563.39439,402.33488 563.40625,402.34375 C 563.41512,402.35561 563.42564,402.36613 563.4375,402.375 C 563.44637,402.38686 563.45689,402.39738 563.46875,402.40625 C 563.47914,402.40731 563.48961,402.40731 563.5,402.40625 C 563.51039,402.40731 563.52086,402.40731 563.53125,402.40625 L 567.8125,402.40625 C 567.82289,402.40731 567.83336,402.40731 567.84375,402.40625 C 567.86669,402.40074 567.88807,402.39005 567.90625,402.375 C 567.91811,402.36613 567.92863,402.35561 567.9375,402.34375 C 567.94936,402.33488 567.95988,402.32436 567.96875,402.3125 L 576.3125,379.78125 L 576.3125,404.34375 C 576.31144,404.35414 576.31144,404.36461 576.3125,404.375 C 576.31801,404.39794 576.3287,404.41932 576.34375,404.4375 C 576.35262,404.44936 576.36314,404.45988 576.375,404.46875 C 576.39318,404.4838 576.41456,404.49449 576.4375,404.5 C 576.44789,404.50106 576.45836,404.50106 576.46875,404.5 L 580.59375,404.5 C 580.60414,404.50106 580.61461,404.50106 580.625,404.5 C 580.64794,404.49449 580.66932,404.4838 580.6875,404.46875 C 580.69936,404.45988 580.70988,404.44936 580.71875,404.4375 C 580.7338,404.41932 580.74449,404.39794 580.75,404.375 C 580.75106,404.36461 580.75106,404.35414 580.75,404.34375 L 580.75,373.0625 C 580.75106,373.05211 580.75106,373.04164 580.75,373.03125 C 580.74449,373.00831 580.7338,372.98693 580.71875,372.96875 C 580.70988,372.95689 580.69936,372.94637 580.6875,372.9375 C 580.66932,372.92245 580.64794,372.91176 580.625,372.90625 C 580.61461,372.90519 580.60414,372.90519 580.59375,372.90625 L 575.09375,372.90625 C 575.08336,372.90519 575.07289,372.90519 575.0625,372.90625 C 575.03956,372.91176 575.01818,372.92245 575,372.9375 C 574.98814,372.94637 574.97762,372.95689 574.96875,372.96875 C 574.95689,372.97762 574.94637,372.98814 574.9375,373 L 566.1875,396.78125 L 557.65625,373 C 557.64738,372.98814 557.63686,372.97762 557.625,372.96875 C 557.61613,372.95689 557.60561,372.94637 557.59375,372.9375 C 557.58488,372.92564 557.57436,372.91512 557.5625,372.90625 C 557.55211,372.90519 557.54164,372.90519 557.53125,372.90625 C 557.52086,372.90519 557.51039,372.90519 557.5,372.90625 L 551.34375,372.90625 C 551.33336,372.90519 551.32289,372.90519 551.3125,372.90625 C 551.30211,372.90519 551.29164,372.90519 551.28125,372.90625 z"
       transform="matrix(1.0831528,0,-0.139692,0.9232308,-1,-39.5)"
       id="path6052"
       style="font-size:43.32611084px;font-style:normal;font-variant:normal;font-weight:normal;font-stretch:normal;opacity:0.4;fill:#000000;fill-opacity:1;stroke:none;stroke-width:1px;stroke-linecap:butt;stroke-linejoin:miter;stroke-opacity:1;display:inline;filter:url(#filter6062);font-family:Lucida Sans;-inkscape-font-specification:Lucida Sans" />
  </g>
  <g
     id="layer4"
     style="opacity:1;display:inline">
    <g
       transform="translate(0,-3.5999958)"
       mask="url(#mask3553)"
       id="g6426"
       style="opacity:0.4;filter:url(#filter3571)">
      <path
         d="M 240.0002,497.6303 C 207.01778,497.69558 172.18667,487.1766 150.39374,461.44951 C 128.39043,436.20792 118.4273,400.59805 124.41987,367.49445 C 129.09158,343.59377 147.0565,322.48276 170.9377,316.3803 C 207.10226,305.69373 245.60458,311.06776 281.6252,319.6303 C 286.03521,346.47514 290.47043,373.31586 294.8752,400.16155 C 278.97937,400.16155 263.08353,400.16155 247.1877,400.16155 C 244.05682,381.21461 240.93867,362.26556 237.8127,343.3178 C 218.0387,340.1446 194.00628,343.19746 181.34395,360.5053 C 167.21518,381.85398 172.80043,410.29699 183.56356,431.82567 C 192.52374,449.75369 210.10519,463.97621 230.6252,465.5678 C 254.30598,468.85252 278.17014,462.9881 300.3127,455.1303 C 307.58272,457.5024 304.34049,466.97714 306.65645,472.53655 C 306.75261,478.41897 310.71365,484.78993 307.7502,490.6303 C 285.52958,495.73806 262.83152,498 240.0002,497.6303 z M 344.46895,491.72405 C 338.15205,450.23555 329.68459,409.01541 324.95769,367.3187 C 323.77887,351.36181 329.37215,334.28988 342.90645,324.91155 C 364.85654,308.87385 394.20037,308.81454 420.03145,312.5678 C 445.80116,317.29065 471.38974,334.56631 478.26946,361.02158 C 486.24445,386.86804 487.7806,414.25659 493.13442,440.75259 C 496.01516,458.29542 498.90909,475.8361 501.78145,493.3803 C 487.60437,493.3803 473.42728,493.3803 459.2502,493.3803 C 451.94744,452.03 446.5193,410.29965 438.0002,369.1928 C 434.8345,356.40107 424.83133,344.64379 411.30443,342.91713 C 398.84608,340.34954 381.69149,341.71567 375.1877,354.47405 C 369.07687,374.77166 377.813,395.73461 379.66898,416.00996 C 383.91285,441.80039 388.17214,467.5883 392.40645,493.3803 C 376.52103,493.3803 360.63562,493.3803 344.7502,493.3803 L 344.58279,492.39441 L 344.46895,491.72405 z M 539.1252,491.72405 C 529.43178,432.7537 519.69493,373.78863 510.0002,314.8178 C 525.89603,314.8178 541.79187,314.8178 557.6877,314.8178 C 567.49436,374.33787 577.3022,433.85778 587.09395,493.3803 C 571.19812,493.3803 555.30228,493.3803 539.40645,493.3803 L 539.23904,492.39441 L 539.1252,491.72405 z"
         id="path6095"
         style="font-size:248.94935608px;font-style:normal;font-variant:normal;font-weight:bold;font-stretch:normal;text-align:start;line-height:125%;writing-mode:lr-tb;text-anchor:start;opacity:1;fill:#356289;fill-opacity:1;stroke:none;stroke-width:1px;stroke-linecap:butt;stroke-linejoin:miter;stroke-opacity:1;display:inline;font-family:Lucida Sans;-inkscape-font-specification:Lucida Sans Semi-Bold" />
      <path
         d="M 238.84329,487.66218 C 214.25605,487.662 194.11301,483.77513 178.40579,476.00593 C 162.79644,468.31333 150.32758,457.68392 140.99954,444.06843 C 133.11257,432.60573 127.55952,419.88732 124.34328,405.94343 L 166.31204,405.94343 C 170.00974,420.8879 176.87939,433.8568 186.96829,444.84968 C 198.91417,457.77284 215.99022,464.25578 238.18704,464.25593 C 245.01665,464.25578 252.12008,463.7558 259.46829,462.75593 C 266.81617,461.75576 278.61992,458.59482 294.90579,453.28718 L 299.49954,481.09968 C 279.81753,485.4842 259.58851,487.662 238.84329,487.66218 z M 342.78079,483.41218 L 330.03079,405.94343 L 369.43704,405.94343 L 382.21829,483.41218 L 342.78079,483.41218 z M 457.24954,483.41218 L 444.49954,405.94343 L 478.81204,405.94343 L 491.56204,483.41218 L 457.24954,483.41218 z M 537.40579,483.41218 L 524.65579,405.94343 L 564.12454,405.94343 L 576.87454,483.41218 L 537.40579,483.41218 z"
         id="path6097"
         style="font-size:248.94935608px;font-style:normal;font-variant:normal;font-weight:bold;font-stretch:normal;text-align:start;line-height:125%;writing-mode:lr-tb;text-anchor:start;opacity:1;fill:url(#linearGradient6447);fill-opacity:1;stroke:none;stroke-width:1px;stroke-linecap:butt;stroke-linejoin:miter;stroke-opacity:1;display:inline;font-family:Lucida Sans;-inkscape-font-specification:Lucida Sans Semi-Bold" />
      <path
         d="M 124.34519,405.94317 C 123.76267,403.41766 123.27449,400.86258 122.84519,398.25567 C 118.56341,372.25515 123.07197,350.75595 136.4077,333.75567 C 149.756,316.8323 174.20539,308.34941 209.72021,308.34942 C 218.34266,308.34942 226.5535,308.7845 234.37646,309.63067 C 242.27184,310.39992 254.98285,312.73877 272.53271,316.66192 L 284.65771,390.16192 L 245.22021,390.16192 L 235.93896,333.97442 C 229.6874,332.82054 224.3073,332.25564 219.78271,332.25567 C 198.86648,332.25565 183.63822,338.15928 174.06395,350.00567 C 164.48953,361.85199 161.35131,377.83458 164.6577,397.91192 C 165.10997,400.65831 165.66457,403.31865 166.31395,405.94317 L 124.34519,405.94317 z M 330.03272,405.94317 L 325.56397,378.84942 C 322.30829,359.07979 323.20385,344.67648 328.28272,335.59942 C 333.37417,326.59925 341.17991,319.77738 351.68897,315.16192 C 362.21059,310.62338 375.32419,308.34941 391.03272,308.34942 C 406.99716,308.34942 420.58773,310.83251 431.81398,315.75567 C 443.03995,320.67883 452.10013,327.40455 458.97023,335.94317 C 465.93804,344.55868 471.05815,358.73605 474.31398,378.50567 L 478.81398,405.94317 L 444.50148,405.94317 L 439.59523,376.19317 C 436.73214,358.8082 431.47362,347.08266 423.81398,341.00567 C 416.23945,334.92862 406.87259,331.91189 395.68897,331.91192 C 384.33441,331.9119 375.56543,334.97669 369.40772,341.13067 C 363.33521,347.28459 361.85384,359.83221 364.97022,378.75567 L 369.43897,405.94317 L 330.03272,405.94317 z M 524.65773,405.94317 L 509.28273,312.63067 L 548.75149,312.63067 L 564.12649,405.94317 L 524.65773,405.94317 z"
         id="path6099"
         style="font-size:248.94935608px;font-style:normal;font-variant:normal;font-weight:bold;font-stretch:normal;text-align:start;line-height:125%;writing-mode:lr-tb;text-anchor:start;opacity:1;fill:url(#linearGradient6449);fill-opacity:1;stroke:none;stroke-width:1px;stroke-linecap:butt;stroke-linejoin:miter;stroke-opacity:1;display:inline;font-family:Lucida Sans;-inkscape-font-specification:Lucida Sans Semi-Bold" />
    </g>
  </g>
  <g
     id="layer1"
     style="opacity:1;display:inline">
    <text
       x="112.34268"
       y="113.62369"
       transform="matrix(1.0515971,0,-0.1399627,0.9509345,0,0)"
       id="text2460"
       xml:space="preserve"
       style="font-size:37.90357971px;font-style:normal;font-variant:normal;font-weight:normal;font-stretch:normal;fill:#315d83;fill-opacity:1;stroke:none;stroke-width:1px;stroke-linecap:butt;stroke-linejoin:miter;stroke-opacity:1;font-family:Lucida Sans;-inkscape-font-specification:Lucida Sans"><tspan
         x="112.34268"
         y="113.62369"
         id="tspan2462">CRAZY EDDIE'S</tspan></text>
    <text
       x="416.9183"
       y="362.16528"
       transform="matrix(1.0831528,0,-0.139692,0.9232308,0,0)"
       id="text2467"
       xml:space="preserve"
       style="font-size:43.32611084px;font-style:normal;font-variant:normal;font-weight:normal;font-stretch:normal;fill:#191f7d;fill-opacity:1;stroke:none;stroke-width:1px;stroke-linecap:butt;stroke-linejoin:miter;stroke-opacity:1;font-family:Lucida Sans;-inkscape-font-specification:Lucida Sans"><tspan
         x="416.9183"
         y="362.16528"
         id="tspan2469">SYSTEM</tspan></text>
    <g
       id="g6443">
      <path
         d="M 238.84385,113.55543 C 214.25661,113.55561 194.11357,117.44248 178.40635,125.21168 C 162.797,132.90428 150.32814,143.53369 141.0001,157.14918 C 133.11313,168.61188 127.56009,181.33029 124.34385,195.27418 L 166.3126,195.27418 C 170.0103,180.32971 176.87995,167.36081 186.96885,156.36793 C 198.91473,143.44477 215.99078,136.96183 238.1876,136.96168 C 245.01721,136.96183 252.12064,137.46181 259.46885,138.46168 C 266.81673,139.46185 278.62048,142.62279 294.90635,147.93043 L 299.5001,120.11793 C 279.81809,115.73341 259.58907,113.55561 238.84385,113.55543 z M 342.78135,117.80543 L 330.03135,195.27418 L 369.4376,195.27418 L 382.21885,117.80543 L 342.78135,117.80543 z M 457.2501,117.80543 L 444.5001,195.27418 L 478.8126,195.27418 L 491.5626,117.80543 L 457.2501,117.80543 z M 537.40635,117.80543 L 524.65635,195.27418 L 564.1251,195.27418 L 576.8751,117.80543 L 537.40635,117.80543 z"
         id="text2383"
         style="font-size:248.94935608px;font-style:normal;font-variant:normal;font-weight:bold;font-stretch:normal;text-align:start;line-height:125%;writing-mode:lr-tb;text-anchor:start;fill:url(#linearGradient2503);fill-opacity:1;stroke:none;stroke-width:1px;stroke-linecap:butt;stroke-linejoin:miter;stroke-opacity:1;font-family:Lucida Sans;-inkscape-font-specification:Lucida Sans Semi-Bold" />
      <path
         d="M 124.34576,194.87443 C 123.76324,197.39994 123.27506,199.95502 122.84576,202.56193 C 118.56398,228.56245 123.07254,250.06165 136.40826,267.06193 C 149.75656,283.9853 174.20595,292.46819 209.72077,292.46818 C 218.34322,292.46818 226.55406,292.0331 234.37702,291.18693 C 242.2724,290.41768 254.98341,288.07883 272.53327,284.15568 L 284.65827,210.65568 L 245.22077,210.65568 L 235.93952,266.84318 C 229.68796,267.99706 224.30786,268.56196 219.78327,268.56193 C 198.86704,268.56195 183.63878,262.65832 174.06451,250.81193 C 164.49009,238.96561 161.35187,222.98302 164.65826,202.90568 C 165.11053,200.15929 165.66513,197.49895 166.31451,194.87443 L 124.34576,194.87443 z M 330.03328,194.87443 L 325.56453,221.96818 C 322.30885,241.73781 323.20441,256.14112 328.28328,265.21818 C 333.37473,274.21835 341.18047,281.04022 351.68953,285.65568 C 362.21115,290.19422 375.32475,292.46819 391.03328,292.46818 C 406.99772,292.46818 420.58829,289.98509 431.81454,285.06193 C 443.04051,280.13877 452.10069,273.41305 458.97079,264.87443 C 465.9386,256.25892 471.05871,242.08155 474.31454,222.31193 L 478.81454,194.87443 L 444.50204,194.87443 L 439.59579,224.62443 C 436.7327,242.0094 431.47418,253.73494 423.81454,259.81193 C 416.24001,265.88898 406.87315,268.90571 395.68953,268.90568 C 384.33497,268.9057 375.56599,265.84091 369.40828,259.68693 C 363.33577,253.53301 361.8544,240.98539 364.97078,222.06193 L 369.43953,194.87443 L 330.03328,194.87443 z M 524.65829,194.87443 L 509.28329,288.18693 L 548.75205,288.18693 L 564.12705,194.87443 L 524.65829,194.87443 z"
         id="path2494"
         style="font-size:248.94935608px;font-style:normal;font-variant:normal;font-weight:bold;font-stretch:normal;text-align:start;line-height:125%;writing-mode:lr-tb;text-anchor:start;opacity:1;fill:url(#linearGradient2513);fill-opacity:1;stroke:none;stroke-width:1px;stroke-linecap:butt;stroke-linejoin:miter;stroke-opacity:1;display:inline;font-family:Lucida Sans;-inkscape-font-specification:Lucida Sans Semi-Bold" />
    </g>
  </g>
</svg>
