<?xml version="1.0" encoding="UTF-8" standalone="no"?>
<!-- Created with Inkscape (http://www.inkscape.org/) -->

<svg
   xmlns:dc="http://purl.org/dc/elements/1.1/"
   xmlns:cc="http://creativecommons.org/ns#"
   xmlns:rdf="http://www.w3.org/1999/02/22-rdf-syntax-ns#"
   xmlns:svg="http://www.w3.org/2000/svg"
   xmlns="http://www.w3.org/2000/svg"
   xmlns:sodipodi="http://sodipodi.sourceforge.net/DTD/sodipodi-0.dtd"
   xmlns:inkscape="http://www.inkscape.org/namespaces/inkscape"
   width="655.77722"
   height="353.30557"
   id="svg2"
   version="1.1"
   inkscape:version="0.47 r22583"
   sodipodi:docname="OpenAL.svg">
  <defs
     id="defs4">
    <inkscape:perspective
       sodipodi:type="inkscape:persp3d"
       inkscape:vp_x="0 : 526.18109 : 1"
       inkscape:vp_y="0 : 1000 : 0"
       inkscape:vp_z="744.09448 : 526.18109 : 1"
       inkscape:persp3d-origin="372.04724 : 350.78739 : 1"
       id="perspective10" />
    <inkscape:perspective
       id="perspective2824"
       inkscape:persp3d-origin="0.5 : 0.33333333 : 1"
       inkscape:vp_z="1 : 0.5 : 1"
       inkscape:vp_y="0 : 1000 : 0"
       inkscape:vp_x="0 : 0.5 : 1"
       sodipodi:type="inkscape:persp3d" />
  </defs>
  <sodipodi:namedview
     id="base"
     pagecolor="#ffffff"
     bordercolor="#666666"
     borderopacity="1.0"
     inkscape:pageopacity="0.0"
     inkscape:pageshadow="2"
     inkscape:zoom="0.7"
     inkscape:cx="204.55772"
     inkscape:cy="95.173988"
     inkscape:document-units="px"
     inkscape:current-layer="layer1"
     showgrid="true"
     inkscape:window-width="1440"
     inkscape:window-height="850"
     inkscape:window-x="0"
     inkscape:window-y="0"
     inkscape:window-maximized="1"
     showguides="true"
     inkscape:guide-bbox="true">
    <inkscape:grid
       type="xygrid"
       id="grid2836"
       empspacing="4"
       visible="true"
       enabled="true"
       snapvisiblegridlinesonly="true" />
  </sodipodi:namedview>
  <author>Josh Ventura</author>
  <metadata
     id="metadata7">
    <rdf:RDF>
      <cc:Work
         rdf:about="">
        <dc:format>image/svg+xml</dc:format>
        <dc:type
           rdf:resource="http://purl.org/dc/dcmitype/StillImage" />
        <dc:title></dc:title>
      </cc:Work>
    </rdf:RDF>
  </metadata>
  <g
     inkscape:label="Layer 1"
     inkscape:groupmode="layer"
     id="layer1"
     transform="translate(-28.069713,-454.74542)">
    <path
       sodipodi:nodetypes="cccccccccccssccscsssssssscsssssscsssccssssccccsssccssssssccscccsssccsccccccccsscsssccccccsccsc"
       id="path2832"
       d="m 114.06972,598.051 15.99999,-1e-5 c 4.80754,-0.66677 9,-7 23,-7 20.76947,-0.079 35.74803,15.94458 38,36 0,4.38903 0,17.25981 0,23 0.77704,29.75904 -3.6052,54.0542 -38,56 -5,0 -7,-1 -15,-2 l 0,36 -24,0 1e-5,-141.99999 z m 54.99999,53.99999 c 0,-20 1,-39 -16,-39 -5.71097,0 -10.59698,2.88644 -12.88147,7.15506 -1.17651,2.19833 -3.11853,3.84494 -3.11853,27.84494 0.0569,24.64634 4.00061,35.68618 15.40588,35.86515 17.40357,0.80066 16.59412,-7.86896 16.59412,-31.86515 z m -118.999997,52 c -22.577215,-13.01105 -23,-23 -23,-54 0,-30 2.812011,-36.22825 8,-44 7.101772,-10.63865 18.534876,-15 30,-15 14,0 24.651347,6.74856 33,18 4.023217,5.42207 4.999997,11 4.999997,38 0,34.50234 -1.94071,42.03919 -14.999997,52 -6.275459,4.78653 -14,8 -23,8 -5.046636,0 -11.193934,-0.8066 -15,-3 z m 30,-40 c 0,-7 0,-31.66806 0,-32 0,-8 -3,-19 -15,-19 -12,0 -16,11 -16,19 0,0.77639 0,31.28271 0,32 0,12 4.910126,19 16,19 13,0 15,-7 15,-19 z m 128.999997,-58 c 6.45946,-9.95458 17,-15 31,-15 14,0 21,4 28,12 4.21649,4.81884 8,13 8,17 0,2 -0.006,8.68682 0,9 -7.33333,0 -13.66667,0 -21,0 0,-3 -1.22356,-7.59723 -3,-10 -3.65165,-4.93912 -7,-6 -13,-6 -3.2445,0 -7,1 -10,4 -2.54951,2.54951 -5,4 -5,11 0,3 0,6.66792 0,10 l 30,0 0,21 c 0,0 -30,0 -30,0 0,1.99969 0,9 0,12 0,4.21066 1.52552,7.10461 5,10 3.85911,3.21593 7.19351,3 11,3 8,0 15,-3 15,-16 7,0.007 14,-0.004 21,0 1.17508,23.73457 -15,39 -37,39 -12.47117,0 -25.98166,-5.47323 -32,-18 -2.39624,-4.98761 -4.80335,-10.66813 -5.08635,-16.89528 -0.25795,-5.67614 0.0864,-13.10472 0.0864,-20.10472 0,-11.61394 0,-26 1,-32 1.0658,-6.39482 4.24087,-11.28903 6,-14 l -5e-5,0 z m 78,26 c 0,-21.99999 14,-41 38,-41 25,0 38,19 38,41 l 0,75 -21,0 c -1.1956,-12.85242 0,-58.14457 0,-71 0,-12 -4,-23 -16,-23 -14,0 -15,11 -15,23 0,15.99119 0,56 0,71 l -24,0 c 0,0 0,-50.33558 0,-75 z m 266,-41 c 24,0 38,9 38,45 l 0,71 -22,0 0,-44 -31,0 0,44 -21,0 c 0,-20.468 -0.23829,-54.90547 0,-71 0.5292,-35.74237 16,-45 36,-45 z m 16,49 c 0,-0.53515 0,-10.48217 0,-11 0,-9 -5,-16 -15,-16 -9,0 -16,7 -16,16 0,0.57776 0.002,10.40006 0,11 8,0 25,0 31,0 z m 36,67 c 0,-28 1,-116 1,-116 l 24,0 c 0,0 0,92 0,92 4,0 16.05604,0 17,0 10,0 14,-6 14,-15 6,0 16,0 22,0 0,34 -26,39 -39,39 -7.00756,0 -32.29885,0.006 -39,0 z"
       style="fill:#6d0007;fill-opacity:1" />
    <path
       style="fill:#dea410;fill-opacity:1"
       d="m 439.06971,454.05792 c -22,0 -38,14 -38,44 0,58.57123 0.003,134 0,202 -10e-4,28 12.34153,44.13105 40,44 23.9995,-0.11371 36,-16 36,-44 l 0,-202 c 0,-30 -16,-44 -38,-44 z m -0.875,19.15625 c -0.1371,36.83656 -0.125,79.84375 -0.125,118.84375 l -22,0 0,-96 c 0.19866,-12.30693 6.9879,-23.00719 22.125,-22.84375 z m -106.125,13.84375 c 13,6 26,17 41,26 -12.12795,4.34838 -20,7 -43,14 23,9 33,10 41,15 -8,7 -28,17 -37,26 l 50,0 c 0,0 -9,-20.41285 -9,-40 0,-20.872 9,-41 9,-41 l -52,0 z m 119,26 c 4.77332,0 8.625,3.85168 8.625,8.625 0,4.77332 -3.85168,8.65625 -8.625,8.65625 -4.77332,0 -8.65625,-3.88293 -8.65625,-8.65625 0,-4.77332 3.88293,-8.625 8.65625,-8.625 z m 0,21.34375 c 4.77332,0 8.625,3.88293 8.625,8.65625 0,4.77332 -3.85168,8.625 -8.625,8.625 -4.77332,0 -8.65625,-3.85168 -8.65625,-8.625 0,-4.77332 3.88293,-8.65625 8.65625,-8.65625 z m 0,22 c 4.77332,0 8.625,3.88293 8.625,8.65625 0,4.77332 -3.85168,8.625 -8.625,8.625 -4.77332,0 -8.65625,-3.85168 -8.65625,-8.625 0,-4.77332 3.88293,-8.65625 8.65625,-8.65625 z m -12,43.65625 c 9,0 14.99157,0.0188 23.125,0.0937 -0.13343,6.92491 -0.125,13.90625 -0.125,24.90625 -5,-7 -17,-20 -23,-25 l 0,5e-5 z m -0.125,25.90625 c 9,0 14.99157,0.0188 23.125,0.0937 -0.13343,6.92491 0,14 0,25 -5,-7 -17.125,-20.09375 -23.125,-25.09375 l 0,5e-5 z m 0.125,27.09375 c 9,0 14.99157,0.0188 23.125,0.0937 -0.13343,6.92491 -0.125,13.90625 -0.125,24.90625 -5,-7 -17,-20 -23,-25 l 0,5e-5 z m 0,28 c 9,0 14.99157,-0.0126 23.125,0.0625 -0.13343,6.92491 -0.125,13.9375 -0.125,24.9375 -5,-7 -17,-20 -23,-25 z m 1,26 22,0 c -1,5 -3,9.99307 -8,13 0.55098,-0.27549 -13.60404,-13.19798 -14,-13 z"
       id="path2834"
       sodipodi:nodetypes="cscsccccccccccccccscccsssccsssccssscccccccccccccccccccccccc" />
    <path
       style="fill:#dea410;fill-opacity:1;fill-rule:evenodd;stroke:none"
       d="m 427.72596,513.05792 c -4.77332,0 -8.65625,3.85168 -8.65625,8.625 0,4.77332 3.88293,8.65625 8.65625,8.65625 4.77332,0 8.625,-3.88293 8.625,-8.65625 0,-4.77332 -3.85168,-8.625 -8.625,-8.625 z m 0,21.34375 c -4.77332,0 -8.65625,3.88293 -8.65625,8.65625 0,4.77332 3.88293,8.625 8.65625,8.625 4.77332,0 8.625,-3.85168 8.625,-8.625 0,-4.77332 -3.85168,-8.65625 -8.625,-8.65625 z m 0,22 c -4.77332,0 -8.65625,3.88293 -8.65625,8.65625 0,4.77332 3.88293,8.625 8.65625,8.625 4.77332,0 8.625,-3.85168 8.625,-8.625 0,-4.77332 -3.85168,-8.65625 -8.625,-8.65625 z"
       id="path3630" />
    <path
       sodipodi:nodetypes="ccccccscc"
       id="path3668"
       d="m 545.06971,487.05099 c -13,6 -26,17 -41,26 12.12795,4.34838 20,7 43,14 -23,9 -33,10 -41,15 8,7 28,17 37,26 l -50,0 c 0,0 9,-20.41285 9,-40 0,-20.872 -9,-41 -9,-41 l 52,0 z"
       style="fill:#dea410;fill-opacity:1" />
    <path
       style="fill:#dea410;fill-opacity:1"
       d="m 374.06971,592.05792 c -1,33 -0.0141,50.33958 0,102 0.009,31.61444 10.74139,76.88223 65,77.96875 l 2,0 c 52.26809,-1.12641 62.99111,-46.36877 63,-77.96875 0.0141,-51.66042 1,-69 0,-102 -3.66717,0.0374 -8,0 -12,0 l 0,94 c 0,30.79712 -2.96775,75.41737 -52.03125,76 -51.00215,-0.59592 -53.96875,-45.20755 -53.96875,-76 l 0,-94 c -4,0 -8.33283,0.0374 -12,0 z"
       id="path3691"
       sodipodi:nodetypes="cccccccccccc" />
    <rect
       style="fill:#dea410;fill-opacity:1;fill-rule:evenodd;stroke:none"
       id="rect3697"
       width="68.000031"
       height="21.999979"
       x="405.0697"
       y="786.05103"
       ry="0" />
    <rect
       ry="0"
       y="591.05096"
       x="392.0697"
       height="9.0000286"
       width="94.000008"
       id="rect3699"
       style="fill:#dea410;fill-opacity:1;fill-rule:evenodd;stroke:none" />
  </g>
</svg>
